<?xml version="1.0" encoding="UTF-8" standalone="no"?>
<!-- Created with Inkscape (http://www.inkscape.org/) -->

<svg
   width="3.5in"
   height="2in"
   viewBox="0 0 88.9 50.8"
   version="1.1"
   id="svg5"
   xmlns="http://www.w3.org/2000/svg"
   xmlns:svg="http://www.w3.org/2000/svg">
  <defs
     id="defs2">
    <rect
       x="-46.746782"
       y="214.65359"
       width="233.97985"
       height="27.367177"
       id="rect12858" />
    <rect
       x="199.67899"
       y="254.99545"
       width="250.94791"
       height="228.01181"
       id="rect1574" />
    <rect
       x="-46.746782"
       y="214.65359"
       width="513.26059"
       height="38.160636"
       id="rect26649" />
    <rect
       x="-46.746782"
       y="214.65359"
       width="331.99755"
       height="82.045371"
       id="rect30177" />
  </defs>
  <g
     id="layer1">
    <g
       id="g10788"
       transform="matrix(0.36029179,0,0,0.36029179,-4.7423418,-15.165935)">
      <path
         id="path60689"
         style="opacity:1;fill:#000000;fill-opacity:1;stroke:none;stroke-width:6.42875;stroke-linecap:round;stroke-linejoin:round;stroke-miterlimit:4;stroke-dasharray:none;stroke-opacity:1;paint-order:stroke fill markers;stop-color:#000000"
         d="m 441.78711,135.11328 a 63.444913,30.970744 0 0 0 -63.44531,30.9707 63.444913,30.970744 0 0 0 63.44531,30.97071 63.444913,30.970744 0 0 0 63.44531,-30.97071 63.444913,30.970744 0 0 0 -63.44531,-30.9707 z m 40.19141,18.76367 c 0.864,0 1.47265,0.63871 1.47265,1.47071 v 20.44922 l 0.35156,0.1914 c 0.73599,0 1.37696,0.44774 1.37696,0.92774 0,0.54399 -0.64097,0.99218 -1.37696,0.99218 h -8.63867 c -0.80001,0 -1.37695,-0.44819 -1.37695,-0.99218 0,-0.48 0.57694,-0.92774 1.37695,-0.92774 l 0.28711,-0.1914 v -15.9043 h -3.71094 c -0.768,0 -1.37695,-0.41694 -1.37695,-0.96094 0,-0.512 1.08895,-0.76652 1.37695,-0.89453 l 9.34375,-3.96875 c 0.32002,-0.12801 0.63866,-0.19141 0.89454,-0.19141 z m -82.23829,0.35157 h 11.90235 c 5.50401,0 8.67187,4.25511 8.67187,8.2871 0,3.136 -1.91977,6.11286 -6.17578,6.88086 v 0.22461 l 1.37695,0.28711 c 1.79199,0.384 3.9668,1.79152 3.9668,3.10352 0,0.192 -0.0625,0.86511 -0.0625,1.53711 0,1.824 1.72656,1.34318 1.72656,2.36719 h 0.002 c 0,0.54399 -0.895,0.99218 -1.375,0.99218 h -6.17578 c -2.11212,0 -2.36914,-2.59201 -2.36914,-4.41601 0,-0.544 0.0312,-1.02374 0.0312,-1.34375 0,-1.792 -1.21719,-2.08008 -3.20118,-2.08008 v 5.72852 l 0.35352,0.1914 c 0.73599,0 1.375,0.44774 1.375,0.92774 0,0.54399 -0.63901,0.99218 -1.375,0.99218 h -8.60938 c -0.83202,0 -1.375,-0.44819 -1.375,-0.99218 0,-0.48 0.54298,-0.92774 1.375,-0.92774 l 0.25586,-0.1914 v -19.48829 c -0.672,-0.41599 -1.66406,-0.25634 -1.66406,-1.15234 0,-0.512 0.5777,-0.92773 1.3457,-0.92773 z m 52.57422,1.75976 c 1.44,0 3.36133,0.80012 3.36133,3.32813 0,0.672 -0.16034,1.47164 -0.48047,2.43164 l -5.63281,16.16015 h -3.03906 l -6.08008,-17.95117 h -0.96094 c -0.54399,0 -1.15039,-0.41693 -1.15039,-0.96094 0,-0.51199 0.38239,-0.89648 1.15039,-0.89648 h 6.94531 c 0.768,0 1.15263,0.57664 1.3125,1.05664 l 2.30274,6.84766 c 0.096,0.256 0.3203,0.44921 0.57617,0.44921 0.19189,0 0.41572,-0.1292 0.51172,-0.44921 1.02576,-3.04001 1.05664,-3.19863 1.05664,-3.39063 0,-1.568 -2.49609,-2.11381 -2.49609,-4.25781 0,-1.312 1.05507,-2.36719 2.62304,-2.36719 z m -43.13476,0.41602 c -0.864,0 -1.69531,0.31989 -1.69531,1.08789 0,0.352 0.73437,0.51309 0.73437,1.12109 v 6.91016 c 0,0.704 -0.73437,1.0242 -0.73437,1.4082 0,0.8 0.76613,1.08789 1.6621,1.08789 0.89602,0 1.88868,-1.11826 1.88868,-1.82226 v -8.03321 c 0,-0.768 -0.95946,-1.75976 -1.85547,-1.75976 z m 20.79883,1.4082 c 4.83201,0 7.55273,2.81623 7.55273,6.24023 0,0.192 -0.12861,0.63868 -0.64063,0.63868 h -8.03124 v 11.07226 c -10e-6,0.672 0.95975,1.08789 1.75976,1.08789 0.99198,0 1.79297,-0.54314 1.79297,-1.11914 0,-0.352 -0.25586,-0.7688 -0.25586,-1.2168 0,-1.05598 1.0555,-1.91992 2.27148,-1.91992 1.248,0 2.30274,0.86394 2.30274,1.91992 0,2.08 -4.15995,3.77735 -6.75195,3.77735 -6.27198,0 -9.43946,-5.15344 -9.43946,-10.27344 0,-5.12 3.13547,-10.20703 9.43946,-10.20703 z m 0.80078,1.375 c -1.11999,0 -2.01563,1.05759 -2.01563,2.43359 v 1.91993 h 4.03125 v -1.91993 c 0,-1.376 -0.86362,-2.43359 -2.01562,-2.43359 z m 26.625,13.4082 c 1.88798,0 3.42382,1.28161 3.42382,2.84961 10e-6,1.568 -1.53584,2.84766 -3.42382,2.84766 -1.88799,0 -3.42578,-1.27966 -3.42578,-2.84766 0,-1.568 1.53779,-2.84961 3.42578,-2.84961 z"
         transform="matrix(0.26458333,0,0,0.26458333,22.947351,51.759007)" />
      <path
         id="path13779"
         style="font-size:85.3333px;line-height:1.25;font-family:'Wooden Nickel NF';-inkscape-font-specification:'Wooden Nickel NF';letter-spacing:0px;word-spacing:0px;white-space:pre;stroke-width:0.305053"
         d="m 96.430831,65.942956 c -0.665881,0.191483 -1.220396,0.750338 -1.797676,0.914627 -0.444064,0.126376 -0.599248,-0.07225 -2.219134,0.393309 -0.344564,0.09903 -0.678304,0.220753 -1.000861,0.36256 0,0 -1e-6,0 -1e-6,0 -0.235126,0.103381 -0.464486,0.217591 -0.687923,0.341673 0,0 -10e-7,0 -10e-7,0 -4.151722,2.305079 -6.31331,7.868929 -6.316399,13.164687 -0.003,5.227327 2.084833,9.96758 6.277958,9.65551 0,0 0,0 0,0 0.222837,-0.01659 0.451686,-0.0465 0.686691,-0.09003 0,0 10e-7,0 10e-7,0 0.245303,-0.04544 0.497191,-0.105694 0.755837,-0.181075 1.150641,-0.335349 2.399597,-1.085537 3.783571,-2.298119 0.290639,-0.241265 0.514025,-0.382195 0.714288,-0.436459 0.890212,-0.241213 1.162884,0.965088 2.140668,0.688271 0.688892,-0.195029 0.939323,-0.591437 0.945616,-0.977095 0.0088,-0.536301 -0.426198,-1.132512 -0.555907,-1.474474 0.0359,-2.844218 0.05368,-5.783275 0.05465,-8.981033 0.717239,-0.157996 1.053921,-0.683958 1.053581,-1.109632 -3.7e-4,-0.456078 -0.314957,-0.815867 -0.942364,-0.676275 -2.019607,0.449343 -4.029272,0.904015 -6.047056,1.361885 -0.626789,0.14223 -0.962412,0.640881 -0.962646,1.091961 -1.89e-4,0.361164 0.245998,0.636487 0.738572,0.645977 -0.0017,2.613334 -0.0068,4.898432 -0.01618,7.405502 -0.002,0.528436 0.619952,0.796519 0.617983,1.324955 -0.0035,0.705827 -0.383751,1.168542 -1.207156,1.390233 -0.360495,0.09706 -0.778464,-0.120383 -1.068383,-0.50574 -0.210978,-0.280918 -0.353015,-0.650225 -0.352294,-1.042621 0.01231,-6.699109 0.0075,-9.043861 0.01977,-15.74297 9.82e-4,-0.405424 0.130469,-0.900096 0.357878,-1.351647 0.291282,-0.577571 0.745426,-1.089053 1.294282,-1.239116 2.268298,-0.620176 2.969487,4.396347 4.915511,3.939186 0.581701,-0.136654 0.983102,-0.634384 0.981087,-1.10359 -2.68e-4,-0.06242 -0.0073,-0.185322 -1.251072,-5.011272 -0.09058,-0.3823 -0.491169,-0.580463 -0.912894,-0.45919 z m 44.066359,-8.878343 c -4.28805,0.323657 -5.86547,5.193851 -5.82485,9.376257 0.0294,3.030279 0.89269,5.640321 2.29214,6.929741 1.58137,1.468984 3.88723,3.033295 4.03959,4.552937 -0.0156,0.771394 -0.88009,1.479148 -1.49956,1.527072 -0.49414,0.03823 -0.63564,-0.556452 -0.98409,-1.192088 -0.34398,-0.627475 -0.89405,-1.294128 -2.16839,-1.160193 -1.39049,0.146143 -1.85865,0.870069 -1.88541,1.736637 -0.0572,1.85086 3.0095,1.861079 4.79043,1.735155 2.0733,-0.146596 4.00443,-0.90014 5.18647,-2.392888 0.0856,-0.108359 0.16744,-0.220637 0.24532,-0.336877 0.44038,-0.655818 0.75289,-1.437438 0.90332,-2.345682 0.0947,-0.532213 0.1199,-1.075777 0.12193,-1.574231 0.006,-1.555642 -0.36599,-2.944481 -0.9826,-4.249085 -0.0762,-0.161144 -0.15603,-0.32108 -0.23941,-0.480078 -1.2548,-2.392705 -3.30026,-4.5341 -5.33645,-7.515046 -0.18624,-0.236995 -0.25879,-0.486942 -0.26278,-0.744617 -0.012,-0.774935 0.68546,-1.440209 1.34926,-1.497177 2.02101,-0.173448 0.94809,3.518848 2.9691,3.3454 0.47124,-0.04007 0.91567,-0.255931 1.2479,-0.598177 0.0874,-0.09028 0.16711,-0.189386 0.23763,-0.29649 0.21901,-0.331786 0.34938,-0.741015 0.34497,-1.205037 -0.005,-0.479676 -0.13971,-0.935747 -0.37055,-1.354259 -0.0727,-0.131882 -0.15499,-0.260001 -0.24562,-0.38383 -0.8679,-1.186022 -2.50586,-1.984812 -3.92835,-1.877444 z m 11.96956,-0.367651 c -2.14347,-0.03712 -3.61101,1.02482 -4.56765,2.683239 -0.94575,1.63955 -1.35367,3.809949 -1.34661,5.857012 0.0102,2.939918 0.87152,5.624324 2.2759,6.97923 1.58558,1.541965 3.8956,3.274396 4.07711,5.037649 1.6e-4,0.902786 -0.83936,1.683137 -1.45552,1.688925 -0.4905,0.0046 -0.65085,-0.71057 -1.01072,-1.444509 -0.3589,-0.731963 -0.91304,-1.47215 -2.18771,-1.386951 -1.3885,0.09281 -1.84959,0.829598 -1.8603,1.763265 -0.0242,2.106734 3.08736,2.354884 4.84577,2.394129 1.5362,0.03429 2.94461,-0.366045 4.04558,-1.329717 1.0978,-0.960899 1.87284,-2.478144 2.13272,-4.39909 0.0896,-0.614954 0.11154,-1.228317 0.11121,-1.778241 -0.002,-2.552151 -0.82547,-4.420575 -2.04164,-6.193203 -1.21617,-1.772627 -2.82281,-3.476593 -4.41788,-5.763092 -0.18225,-0.227449 -0.25128,-0.463358 -0.2519,-0.702568 -0.002,-0.717684 0.70288,-1.290278 1.36202,-1.305158 1.72741,-0.039 0.6181,3.276629 2.89652,3.107376 0.97001,-0.07206 1.82578,-0.82121 1.82622,-1.831748 7.8e-4,-1.776095 -2.40648,-3.34145 -4.43312,-3.376548 z M 80.371641,70.968738 c -0.02224,0.0061 -0.718377,0.457346 -1.408888,0.642311 -2.544478,0.681581 -5.078412,1.336576 -7.634558,1.958754 -0.537041,0.130718 -0.749817,0.465723 -0.763507,0.858092 -0.01452,0.416055 0.625386,0.594912 0.715095,0.574217 -8.54e-4,-3.4e-5 0.557072,0.02222 0.556217,0.02219 -0.13424,4.797989 -0.135002,11.908384 -0.0141,18.393863 0.0013,-3.03e-4 -0.561469,0.132481 -0.560191,0.132178 -0.515116,0.121049 -0.730386,0.612839 -0.718506,1.160002 0.01339,0.616853 0.269455,0.969453 0.761159,0.846406 2.88418,-0.721752 5.737037,-1.483068 8.607331,-2.274142 0.867729,-0.239152 1.228486,0.03898 1.917357,-0.155987 0.665692,-0.188407 0.835639,-1.014795 0.919161,-1.561578 0.132552,-0.891634 0.267666,-1.783264 0.403791,-2.66792 -5.64e-4,-0.09204 0.02088,-0.189798 0.02032,-0.281842 -0.0029,-0.491501 -0.22846,-0.928096 -0.921309,-0.761474 -0.380125,0.09142 -0.736248,0.393353 -0.868338,0.736698 -0.249294,0.620031 -0.497843,1.244362 -0.745102,1.872677 -0.152324,0.383231 -0.417024,0.864088 -0.99618,1.013393 -0.557506,0.143724 -1.115004,0.286553 -1.672875,0.428424 -0.04638,-3.418992 -0.06384,-7.028356 -0.05909,-10.198865 0.0097,-0.0021 1.178698,-0.253976 1.188425,-0.256062 0.874513,-0.189311 1.255401,-0.214177 1.434273,0.226226 0.673676,1.176436 1.029887,1.311938 1.412315,1.227202 0.627279,-0.138989 0.985362,-0.733389 0.985448,-1.12391 2e-5,-0.09029 -0.02231,-0.205654 -0.06708,-0.285859 -0.493486,-0.944478 -0.982196,-1.874283 -1.471955,-2.793635 -0.06678,-0.161794 -0.557789,-0.40171 -0.983664,-0.306638 -0.42569,0.09503 -0.78655,0.610734 -0.788356,1.050666 -2.4e-4,0.05866 -3.1e-4,0.117235 0.02188,0.171078 -0.575405,0.126253 -1.150711,0.251689 -1.7264,0.376283 0.0094,-2.205699 0.03112,-4.385919 0.0717,-6.396167 0.0081,-0.0104 0.197124,-0.253004 0.205228,-0.263406 0.53595,-0.134668 1.071563,-0.270272 1.607161,-0.406755 1.183444,2.082995 1.512791,2.193411 1.907716,2.099005 0.581398,-0.138989 0.964376,-0.628905 0.968818,-1.053968 0.0012,-0.113112 -0.0199,-0.220354 -0.0633,-0.321922 -0.326108,-0.734392 -0.648353,-1.449645 -0.967906,-2.146644 -0.214362,-0.429793 -0.804217,-0.661063 -1.272088,-0.532886 z M 55.92725,76.753976 c -0.544126,0.09207 -0.990325,0.440457 -1.00654,0.794994 -0.01722,0.376412 0.402548,0.607257 0.946456,0.518129 0.07376,0.0335 0.147532,0.06714 0.221319,0.100916 -0.151133,3.948385 -0.165776,9.816516 -0.05593,15.937815 0.06039,3.365527 3.159925,4.705879 6.154915,4.070451 2.994994,-0.635429 5.897575,-3.091248 5.847205,-6.308505 -0.09121,-5.825751 -0.07958,-11.778391 0.05533,-16.00178 0.0077,-0.0067 0.221155,-0.190306 0.228883,-0.196957 0.539118,-0.11839 0.975307,-0.536249 0.990411,-0.950171 0.01422,-0.389698 -0.39896,-0.59528 -0.936957,-0.470788 -0.897127,0.207593 -1.794496,0.409977 -2.693598,0.60703 -0.539409,0.11822 -0.981226,0.505199 -0.996779,0.879662 -0.01652,0.39787 0.400417,0.624328 0.940345,0.511725 0.07313,0.03272 0.14629,0.0656 0.219467,0.09864 -0.135276,3.982696 -0.151596,9.514895 -0.07066,15.076097 0.01997,1.372232 -1.02062,2.35627 -2.057145,2.562479 -1.035004,0.205907 -2.04546,-0.342476 -2.068211,-1.813306 -0.08728,-5.642975 -0.06936,-11.123303 0.07332,-15.002221 0.0023,-0.0017 0.251381,-0.187852 0.253678,-0.189569 0.519018,-0.0999 0.958331,-0.493531 0.975285,-0.887779 0.01591,-0.369952 -0.397521,-0.573051 -0.916096,-0.468667 -2.032395,0.4091 -4.061012,0.78601 -6.104706,1.131808 z m 45.01948,-11.285537 c -0.53381,0.14602 -0.93116,0.675392 -0.92731,1.185755 0.007,0.895414 0.6963,0.55427 1.16843,0.85279 0.0567,6.80118 0.0639,12.527767 -0.0237,18.119825 0.003,-0.0037 -0.18451,0.206193 -0.18123,0.202528 -0.5803,0.148343 -0.96465,0.614653 -0.97081,1.005355 -0.007,0.443503 0.36553,0.693042 0.94399,0.535395 1.99835,-0.544606 3.99253,-1.074471 5.99743,-1.585693 0.51338,-0.130906 0.97141,-0.569323 0.98302,-0.973989 0.0102,-0.356747 -0.42862,-0.59661 -0.94356,-0.473156 -0.0809,-0.02977 -0.16184,-0.05974 -0.2428,-0.0899 0.0348,-1.48866 0.0594,-3.077756 0.0742,-4.760326 1.39002,-0.293718 2.24736,-0.204785 2.22451,1.311751 -0.004,0.26768 -0.0325,0.670755 -0.0408,1.111771 -0.029,1.532864 0.0967,3.329373 1.5681,2.974896 1.44131,-0.34724 2.88219,-0.681271 4.32849,-1.001274 0.33666,-0.07449 0.9804,-0.511537 0.99528,-0.886627 0.0282,-0.710463 -1.19635,-0.08547 -1.15844,-1.471437 0.014,-0.51062 0.0711,-1.051166 0.0744,-1.203991 0.022,-1.03291 -1.49381,-1.956388 -2.75225,-2.043435 -0.0602,-0.0038 -0.9047,-0.05754 -0.96487,-0.06137 0,-4.5e-5 0.002,-0.196563 0.002,-0.196607 3.00225,-1.271976 4.3729,-4.124129 4.34879,-7.319243 -0.0306,-4.056806 -2.36297,-8.378199 -6.20757,-7.415685 -2.77825,0.695546 -5.5291,1.426105 -8.29494,2.182669 z M 25.830115,78.982363 c -0.584771,-0.0139 -0.850953,0.338357 -0.84913,0.758179 0.0021,0.479795 0.384334,0.978632 1.12663,0.958209 0.01376,5.947383 0.01229,12.08411 -4.62e-4,18.426031 -0.06016,0.07409 -0.12033,0.147875 -0.180485,0.221331 -0.696448,0.01636 -1.033021,0.473569 -1.034728,0.922917 -0.0017,0.44934 0.331017,0.88068 0.959863,0.89946 3.234739,0.0966 6.161569,0.0983 9.467325,-0.031 0.831745,-0.0325 1.579266,-0.23545 2.246159,-0.57504 0.13161,-0.0672 0.259911,-0.13971 0.384918,-0.21722 2.352891,-1.455655 3.544002,-4.639327 3.523828,-7.416784 -0.01957,-2.694992 -1.172945,-5.013835 -3.601213,-5.879785 0,0 0,0 0,0 -0.124478,-0.04425 -0.252357,-0.0848 -0.383643,-0.121512 0,0 0,0 -10e-7,0 -0.225662,-0.06342 -0.461349,-0.115482 -0.707005,-0.155434 0.247265,-0.06557 0.483183,-0.141387 0.707926,-0.22632 0,0 1e-6,-10e-7 1e-6,-10e-7 0.132043,-0.0502 0.260155,-0.103572 0.38437,-0.159884 0,0 0,0 0,0 2.052904,-0.926629 3.052586,-2.627481 3.073083,-4.085953 0.02136,-1.519722 -0.99462,-2.780543 -2.99178,-3.223312 -0.124663,-0.02755 -0.253215,-0.05197 -0.385576,-0.07309 0,0 0,0 0,0 -0.502649,-0.0806 -1.063437,-0.113885 -1.674557,-0.08886 -3.525915,0.144405 -6.609848,0.150156 -10.065523,0.06802 z m 18.017013,-0.597778 c -0.618266,0.05774 -0.995108,0.367209 -1.005522,0.679369 -0.01267,0.37981 0.846996,0.61547 0.960591,0.604214 0.0032,7.61e-4 0.336135,0.07893 0.339372,0.07969 -0.123823,4.167041 -0.12996,11.301865 -0.0038,18.326094 0.0035,-0.0023 -0.342817,0.223022 -0.339351,0.220766 -0.570478,0.0584 -0.973045,0.614562 -0.962297,1.178345 0.0122,0.640227 1.007824,1.081517 1.007824,1.081517 2.889231,-0.28514 5.706626,-0.654274 8.577596,-1.103858 0.428517,-0.0671 0.741598,-0.01421 1.035052,0.04238 0,0 0,0 0,0 0.208738,0.04024 0.407478,0.08232 0.629434,0.08334 0.09495,4.39e-4 0.1942,-0.0066 0.300407,-0.02458 0.679197,-0.114759 0.834986,-1.098353 0.908697,-1.739293 0.109435,-1.048986 0.223245,-2.075928 0.34043,-3.077092 0.02062,-0.109936 0.04107,-0.219585 0.03848,-0.360488 -0.0097,-0.528739 -0.312417,-1.000209 -0.946907,-0.902142 -0.318395,0.04921 -0.607172,0.241454 -0.769524,0.49843 0,0 0,0 0,0 -0.04564,0.07226 -0.08132,0.149647 -0.104872,0.230427 -0.164595,0.435865 -0.328716,0.876408 -0.492213,1.321349 -0.08853,0.240872 -0.176878,0.483084 -0.265045,0.72663 -0.106582,0.305286 -0.459432,0.914259 -1.026582,0.999052 -0.530408,0.0793 -1.06065,0.15641 -1.591637,0.231322 -0.15961,-7.153716 -0.154108,-14.221016 0.0013,-18.465179 0.0073,-0.0037 0.36192,-0.18276 0.369213,-0.186444 0.5462,-0.07586 0.989067,-0.434944 1.005834,-0.808284 0.01578,-0.351426 -0.402778,-0.541479 -0.949591,-0.464558 -2.358117,0.331722 -4.687905,0.607757 -7.056803,0.828993 z M 121.18883,60.635132 c -0.5417,0.106383 -0.73368,0.592196 -0.72028,1.177478 0.0134,0.585288 0.2264,1.014996 0.76847,0.913385 0.35378,-0.06632 0.70766,-0.131781 1.06174,-0.196396 -1.0274,7.786294 -2.21831,14.398697 -3.5822,19.302491 -0.26316,0.05067 -0.52622,0.101805 -0.78921,0.153416 -0.45104,0.08851 -0.75352,0.420596 -0.76899,0.794449 -0.0136,0.328781 0.22014,0.571383 0.71571,0.469145 1.28468,-0.265035 2.56941,-0.517205 3.8586,-0.756441 0.52004,-0.0965 0.76107,-0.419084 0.77551,-0.736001 0.0164,-0.358701 -0.19985,-0.585707 -0.71995,-0.493297 -0.2562,0.04552 -0.51231,0.09151 -0.76835,0.137968 0.19897,-0.688702 0.39415,-1.413484 0.5857,-2.173103 1.34312,-0.227714 2.68454,-0.443768 4.03108,-0.649069 0.14054,0.697722 0.27721,1.355832 0.41008,1.972685 -0.26468,0.0414 -0.52926,0.08331 -0.79378,0.125743 -0.54415,0.08728 -0.73661,0.401937 -0.75206,0.735779 -0.0155,0.333856 0.24251,0.545275 0.69606,0.469918 0.99774,-0.165771 1.99571,-0.323113 2.99618,-0.472283 0.1467,-0.02189 0.29344,-0.04359 0.44022,-0.06511 1.24311,-0.182139 2.48373,-0.35035 3.73097,-0.503691 0.47955,-0.05896 0.76636,-0.34147 0.78042,-0.667923 0.014,-0.326154 -0.18131,-0.581352 -0.72859,-0.514218 -0.14439,0.01771 -0.28876,0.0356 -0.43312,0.05367 -0.96425,-4.508329 -1.99648,-10.661414 -3.29162,-18.476145 -0.0139,-0.08386 -0.12565,-0.758307 -0.13955,-0.842165 -0.007,-0.320365 -0.13681,-0.580962 -0.33848,-0.740942 -0.17694,-0.140391 -0.4092,-0.203097 -0.66386,-0.161703 -2.13006,0.34624 -4.24297,0.726463 -6.3607,1.142363 z M 28.268089,80.456907 c 0.414773,-0.0105 0.75151,0.384819 0.751632,0.882695 2.57e-4,5.186313 0.0016,10.878825 -0.002,17.099692 -1.63e-4,0.605107 -0.337256,1.103114 -0.752076,1.112255 -0.414902,0.0093 -0.749237,-0.466655 -0.748265,-1.048265 0.0082,-6.052394 0.007,-11.744271 0.0016,-17.09467 -4.34e-4,-0.521301 0.334265,-0.941324 0.74913,-0.951711 0,0 0,4e-6 0,4e-6 z M 46.34942,79.272021 c 0.418575,-0.04739 0.745392,0.245782 0.732756,0.673053 -0.120267,4.035448 -0.124546,10.539733 -0.0019,17.090658 0.01275,0.670617 -0.314234,1.268233 -0.73289,1.317521 -0.418913,0.04947 -0.769691,-0.468691 -0.781393,-1.13945 -0.115856,-6.533457 -0.111643,-13.065659 0.0016,-17.094961 0.01215,-0.428892 0.363018,-0.799497 0.781854,-0.846824 0,0 0,3e-6 0,3e-6 z m 11.942792,-1.743962 c 0.414857,-0.0729 0.737046,0.208676 0.722272,0.647511 -0.134404,3.966215 -0.1438,9.679389 -0.03637,15.571108 0.01154,0.638144 -0.31329,1.227123 -0.72798,1.299994 -0.414928,0.07306 -0.762845,-0.399517 -0.774698,-1.042306 -0.108255,-5.919414 -0.09872,-11.629827 0.03581,-15.569457 0.01496,-0.435159 0.365863,-0.834009 0.780969,-0.906854 0,0 0,4e-6 0,4e-6 z m 15.651836,-3.294622 c 0.41009,-0.09863 0.73264,0.201982 0.72204,0.685542 -0.102303,4.625364 -0.102988,11.137025 -0.01595,16.987297 0.0091,0.599211 -0.31486,1.174389 -0.724905,1.275252 -0.410082,0.100587 -0.751958,-0.313918 -0.761474,-0.922021 -0.09459,-5.92694 -0.09373,-12.40657 0.01512,-16.992742 0.01139,-0.475933 0.355037,-0.934473 0.76517,-1.033332 0,0 0,4e-6 -1e-6,4e-6 z m 29.528982,-7.68487 c 0.40921,-0.103699 0.74707,0.301477 0.75357,0.903126 0.0675,6.341466 0.0718,11.920534 -0.0215,16.950576 -0.009,0.472224 -0.34897,0.930974 -0.75847,1.034368 -0.4097,0.103551 -0.73489,-0.190293 -0.72668,-0.671635 0.0854,-5.128768 0.0809,-10.630108 0.0218,-16.948126 -0.005,-0.593394 0.32179,-1.164697 0.73121,-1.268313 0,0 0,4e-6 0,4e-6 z m 23.15996,-4.932362 c 0.35896,-0.0811 0.68693,0.263722 0.78215,0.815619 0.3257,1.893539 0.63836,3.703231 0.94224,5.433478 0.15541,0.884824 0.30789,1.745027 0.45779,2.580191 0.61091,3.403958 1.16549,6.317711 1.68414,8.722606 0.0846,0.389992 -0.18256,0.804052 -0.59316,0.949464 -0.41043,0.146261 -0.80926,-0.02759 -0.89097,-0.406004 -0.0886,-0.407921 -0.17883,-0.833131 -0.27057,-1.275413 -0.12957,-0.624519 -0.26192,-1.281492 -0.39734,-1.970778 -0.72512,-3.691175 -1.50552,-8.133117 -2.38861,-13.240738 -0.10794,-0.628287 0.12749,-1.329232 0.52867,-1.551678 0.0476,-0.0266 0.0964,-0.04563 0.14566,-0.05679 0,0 0,4.1e-5 0,4.1e-5 z M 33.177341,80.478678 c 0.639366,-0.03025 1.339703,0.628191 1.334948,1.2377 -0.0084,1.077127 -0.0141,2.215671 -0.0178,3.386512 -0.0019,0.60879 -0.729346,1.253852 -1.363304,1.317839 -0.634279,0.06402 -1.131567,-0.204666 -1.130512,-0.91072 4.79e-4,-0.321053 0.499729,-0.758806 0.500209,-1.079859 -7.4e-5,0.03098 0.0064,-2.05909 0.0063,-2.028113 0.0012,-0.302557 -0.497167,-0.611899 -0.495988,-0.914456 0.0025,-0.629075 0.549906,-0.979743 1.166159,-1.008903 z M 107.55599,66.025347 c 0.62636,-0.15004 1.31425,0.737474 1.32438,1.539197 0.0353,2.793238 0.0534,5.456299 0.0512,7.974182 -6e-4,0.665735 -0.70121,1.825918 -1.331,1.955327 -0.62944,0.129336 -1.16663,-0.01951 -1.16494,-0.759626 8.1e-4,-0.356233 0.51826,-0.759706 0.51806,-1.426383 -6.7e-4,-2.187512 -0.015,-4.464899 -0.0407,-6.834121 -0.005,-0.493626 -0.52295,-0.539973 -0.5283,-1.033599 -0.009,-0.793248 0.5671,-1.270282 1.1713,-1.415014 0,0 0,3.7e-5 0,3.7e-5 z m -18.657323,5.258444 c 0.408753,-0.106033 0.738688,0.245006 0.736905,0.789607 -0.01142,3.309182 -0.01704,11.998941 -0.01828,15.261977 -3.01e-4,0.536795 -0.332089,1.058265 -0.740685,1.164817 -0.40841,0.106622 -0.740573,-0.244092 -0.741324,-0.789302 -0.005,-4.131048 -0.0025,-11.193013 0.01782,-15.264738 0.0028,-0.536351 0.336997,-1.056527 0.745569,-1.162394 0,0 0,3.3e-5 0,3.3e-5 z m 48.345083,-7.868124 c 0.41865,-0.03187 0.7575,0.475869 0.75549,1.1176 -0.004,1.26575 0.2729,2.10908 0.7596,2.911595 0.48529,0.800172 1.19647,1.503213 1.95261,2.207837 0.7621,0.710188 1.55666,1.414612 2.20685,2.343748 0.64467,0.921252 1.12141,2.102748 1.1031,3.466127 -0.006,0.480826 -0.35031,0.878221 -0.76854,0.909092 -0.4184,0.03068 -0.75088,-0.315463 -0.74401,-0.791174 0.013,-0.908464 -0.26098,-1.572458 -0.74741,-2.241014 -0.48892,-0.671956 -1.19758,-1.290728 -1.95811,-1.967636 -0.75515,-0.672121 -1.566,-1.404722 -2.20722,-2.43079 -0.64485,-1.03184 -1.11565,-2.433382 -1.11109,-4.290085 8.8e-4,-0.64375 0.33991,-1.203838 0.75873,-1.2353 z m 11.89563,-1.03469 c 0.41695,-0.01516 0.74756,0.477617 0.7396,1.089475 -0.0161,1.21323 0.2545,2.037402 0.73372,2.822819 0.47913,0.785278 1.18337,1.473511 1.93411,2.167306 0.75059,0.693674 1.54773,1.395898 2.19071,2.334876 0.64323,0.939371 1.12151,2.18377 1.11679,3.719221 -0.001,0.544995 -0.33756,1.000008 -0.75141,1.027985 -0.41391,0.02811 -0.74867,-0.375371 -0.7473,-0.902484 0.002,-1.005595 -0.27317,-1.721534 -0.76061,-2.42356 -0.48838,-0.703398 -1.19526,-1.33768 -1.95117,-2.021913 -0.75274,-0.681357 -1.55817,-1.415365 -2.19442,-2.4394 -0.63828,-1.027319 -1.10127,-2.414815 -1.08044,-4.210455 0.007,-0.624413 0.35165,-1.149056 0.77042,-1.16387 z m -25.37165,7.405072 c 0.1585,-0.02493 0.29558,0.08374 0.31987,0.33735 0.45652,2.649811 0.88223,5.049301 1.28279,7.170241 -1.1493,0.173614 -2.2952,0.354441 -3.44227,0.543151 0.52156,-2.27354 1.0145,-4.822752 1.48003,-7.60686 0.0439,-0.232001 0.20105,-0.418951 0.35958,-0.443882 z M 33.152289,88.283261 c 0.633999,-0.06665 1.336372,0.692125 1.336742,1.42464 0.0012,2.320325 0.0078,4.948801 0.02247,7.584631 0.0043,0.764741 -0.720346,1.683757 -1.35972,1.714324 -0.638999,0.03055 -1.140371,-0.332243 -1.142549,-1.180483 -9.97e-4,-0.388407 0.497409,-0.894058 0.496411,-1.282465 -0.0054,-1.996302 -0.0084,-3.96763 -0.0095,-5.800067 -2.07e-4,-0.351555 -0.497908,-0.877767 -0.498115,-1.229322 -6.1e-5,-0.725176 0.542899,-1.16699 1.154256,-1.231258 z" />
      <path
         style="color:#000000;fill:#000000;stroke-linecap:round;-inkscape-stroke:none"
         d="m 156.72266,53.697266 c -28.13326,0 -47.6704,5.541624 -66.728519,11.044921 -19.058118,5.503298 -37.632074,10.964844 -64.148438,10.964844 a 1,1 0 0 0 -1,1 1,1 0 0 0 1,1 c 26.791615,0 45.653001,-5.541416 64.705078,-11.042969 C 109.60286,61.16251 128.8514,55.697266 156.72266,55.697266 a 1,1 0 0 0 1,-1 1,1 0 0 0 -1,-1 z"
         id="path43589" />
      <path
         style="color:#000000;fill:#000000;stroke-linecap:round;-inkscape-stroke:none"
         d="m 156.72266,80.825123 c -28.13326,0 -47.6704,5.541624 -66.728519,11.044921 -19.058118,5.503298 -37.632074,10.964846 -64.148438,10.964846 a 1,1 0 0 0 -1,1 1,1 0 0 0 1,1 c 26.791615,0 45.653001,-5.541418 64.705078,-11.042971 C 109.60286,88.290367 128.8514,82.825123 156.72266,82.825123 a 1,1 0 0 0 1,-1 1,1 0 0 0 -1,-1 z"
         id="use44241" />
    </g>
    <text
       xml:space="preserve"
       transform="matrix(0.26458333,0,0,0.26458333,25.852427,-30.94833)"
       id="text12856"
       style="font-size:16px;line-height:1.25;font-family:'CMU Serif';-inkscape-font-specification:'CMU Serif';text-align:center;letter-spacing:0px;word-spacing:0px;white-space:pre;shape-inside:url(#rect12858)"
       x="107.83984"
       y="0"><tspan
         x="-39.31543"
         y="228.86031"
         id="tspan39407"><tspan
           style="font-style:italic;font-family:'Liberation Serif';-inkscape-font-specification:'Liberation Serif Italic'"
           id="tspan39405">https://github.com/agrif/bluegrass</tspan></tspan></text>
    <g
       style="fill:#000000;stroke:none"
       id="g21344"
       transform="matrix(0.1681108,0,0,0.1681108,62.500013,1.2515896)">
      <path
         d="m 115.6,132 h -3.2 c -0.22091,0 -0.4,-0.17909 -0.4,-0.4 V 128 h 4 v 3.6 c 0,0.22091 -0.17909,0.4 -0.4,0.4 z m -8,0 h -3.2 c -0.22091,0 -0.4,-0.17909 -0.4,-0.4 V 124 h 3.6 c 0.22091,0 0.4,-0.17909 0.4,-0.4 v -3.2 c 0,-0.22091 0.17909,-0.4 0.4,-0.4 h 7.2 c 0.22091,0 0.4,0.17909 0.4,0.4 v 3.6 h -3.6 c -0.22091,0 -0.4,0.17909 -0.4,0.4 v 3.6 h -3.6 c -0.22091,0 -0.4,0.17909 -0.4,0.4 v 3.2 c 0,0.22091 -0.17909,0.4 -0.4,0.4 z m -8,0 h -7.2 c -0.220914,0 -0.4,-0.17909 -0.4,-0.4 v -3.2 c 0,-0.22091 0.179086,-0.4 0.4,-0.4 h 7.2 c 0.220914,0 0.4,0.17909 0.4,0.4 v 3.2 c 0,0.22091 -0.179086,0.4 -0.4,0.4 z m -20,0 h -3.2 c -0.220914,0 -0.4,-0.17909 -0.4,-0.4 v -3.2 c 0,-0.22091 -0.179086,-0.4 -0.4,-0.4 h -7.2 c -0.220914,0 -0.4,0.17909 -0.4,0.4 v 3.2 c 0,0.22091 -0.179086,0.4 -0.4,0.4 H 48.4 c -0.220914,0 -0.4,-0.17909 -0.4,-0.4 v -7.2 c 0,-0.22091 0.179086,-0.4 0.4,-0.4 h 3.2 c 0.220914,0 0.4,0.17909 0.4,0.4 v 3.2 c 0,0.22091 0.179086,0.4 0.4,0.4 h 3.2 c 0.220914,0 0.4,-0.17909 0.4,-0.4 v -11.2 c 0,-0.22091 0.179086,-0.4 0.4,-0.4 h 3.2 c 0.220914,0 0.4,0.17909 0.4,0.4 v 11.2 c 0,0.22091 0.179086,0.4 0.4,0.4 h 3.2 c 0.220914,0 0.4,-0.17909 0.4,-0.4 v -3.2 c 0,-0.22091 0.179086,-0.4 0.4,-0.4 h 7.2 c 0.220914,0 0.4,-0.17909 0.4,-0.4 v -3.2 c 0,-0.22091 0.179086,-0.4 0.4,-0.4 h 3.2 c 0.220914,0 0.4,-0.17909 0.4,-0.4 v -3.2 C 76,116.17909 75.820914,116 75.6,116 H 68 v -3.6 c 0,-0.22091 0.179086,-0.4 0.4,-0.4 h 3.2 c 0.220914,0 0.4,-0.17909 0.4,-0.4 V 100.4 C 72,100.17909 71.820914,100 71.6,100 H 64.4 C 64.179086,100 64,99.820914 64,99.6 V 92 h 3.6 c 0.220914,0 0.4,0.179086 0.4,0.4 v 3.2 c 0,0.220914 0.179086,0.4 0.4,0.4 h 3.2 C 71.820914,96 72,95.820914 72,95.6 V 92.4 C 72,92.179086 72.179086,92 72.4,92 H 76 v 3.6 c 0,0.220914 0.179086,0.4 0.4,0.4 H 88 v 3.6 c 0,0.220914 -0.179086,0.4 -0.4,0.4 h -7.2 c -0.220914,0 -0.4,0.17909 -0.4,0.4 v 7.2 c 0,0.22091 0.179086,0.4 0.4,0.4 h 3.2 c 0.220914,0 0.4,-0.17909 0.4,-0.4 v -3.2 c 0,-0.22091 0.179086,-0.4 0.4,-0.4 h 3.2 c 0.220914,0 0.4,0.17909 0.4,0.4 v 7.2 c 0,0.22091 -0.179086,0.4 -0.4,0.4 h -7.2 c -0.220914,0 -0.4,0.17909 -0.4,0.4 v 3.2 c 0,0.22091 0.179086,0.4 0.4,0.4 h 3.2 c 0.220914,0 0.4,0.17909 0.4,0.4 v 3.2 c 0,0.22091 -0.179086,0.4 -0.4,0.4 h -3.2 c -0.220914,0 -0.4,0.17909 -0.4,0.4 v 11.2 c 0,0.22091 -0.179086,0.4 -0.4,0.4 z m -36,0 H 16.4 c -0.220914,0 -0.4,-0.17909 -0.4,-0.4 v -27.2 c 0,-0.22091 0.179086,-0.4 0.4,-0.4 h 27.2 c 0.220914,0 0.4,0.17909 0.4,0.4 v 27.2 c 0,0.22091 -0.179086,0.4 -0.4,0.4 z m 88,-4 h -3.2 c -0.22091,0 -0.4,-0.17909 -0.4,-0.4 v -3.2 c 0,-0.22091 -0.17909,-0.4 -0.4,-0.4 h -3.2 c -0.22091,0 -0.4,0.17909 -0.4,0.4 v 3.2 c 0,0.22091 -0.17909,0.4 -0.4,0.4 H 116 v -4 h 3.6 c 0.22091,0 0.4,-0.17909 0.4,-0.4 v -3.2 c 0,-0.22091 0.17909,-0.4 0.4,-0.4 h 7.2 c 0.22091,0 0.4,-0.17909 0.4,-0.4 v -3.2 c 0,-0.22091 -0.17909,-0.4 -0.4,-0.4 h -3.2 c -0.22091,0 -0.4,-0.17909 -0.4,-0.4 v -3.2 c 0,-0.22091 0.17909,-0.4 0.4,-0.4 h 7.2 c 0.22091,0 0.4,0.17909 0.4,0.4 v 15.2 c 0,0.22091 -0.17909,0.4 -0.4,0.4 z M 40,127.6 V 108.4 C 40,108.17909 39.820914,108 39.6,108 H 20.4 c -0.220914,0 -0.4,0.17909 -0.4,0.4 v 19.2 c 0,0.22091 0.179086,0.4 0.4,0.4 h 19.2 c 0.220914,0 0.4,-0.17909 0.4,-0.4 z m 63.6,-3.6 h -7.2 c -0.220914,0 -0.4,-0.17909 -0.4,-0.4 v -3.2 c 0,-0.22091 0.179086,-0.4 0.4,-0.4 h 3.2 c 0.220914,0 0.4,-0.17909 0.4,-0.4 v -3.2 c 0,-0.22091 -0.179086,-0.4 -0.4,-0.4 H 92 v -11.6 c 0,-0.22091 0.179086,-0.4 0.4,-0.4 h 3.2 c 0.220914,0 0.4,-0.17909 0.4,-0.4 V 96 h 7.6 c 0.22091,0 0.4,-0.179086 0.4,-0.4 v -3.2 c 0,-0.220914 0.17909,-0.4 0.4,-0.4 h 3.2 c 0.22091,0 0.4,0.179086 0.4,0.4 v 3.2 c 0,0.220914 0.17909,0.4 0.4,0.4 h 7.2 c 0.22091,0 0.4,-0.179086 0.4,-0.4 v -3.2 c 0,-0.220914 -0.17909,-0.4 -0.4,-0.4 h -3.2 c -0.22091,0 -0.4,-0.179086 -0.4,-0.4 v -7.2 c 0,-0.220914 0.17909,-0.4 0.4,-0.4 h 3.6 v 3.6 c 0,0.220914 0.17909,0.4 0.4,0.4 h 3.6 v 3.6 c 0,0.220914 0.17909,0.4 0.4,0.4 h 3.2 c 0.22091,0 0.4,0.179086 0.4,0.4 v 3.2 c 0,0.220914 0.17909,0.4 0.4,0.4 h 3.2 c 0.22091,0 0.4,0.179086 0.4,0.4 v 3.2 c 0,0.220914 -0.17909,0.4 -0.4,0.4 h -7.2 c -0.22091,0 -0.4,0.17909 -0.4,0.4 v 7.2 c 0,0.22091 -0.17909,0.4 -0.4,0.4 h -3.2 c -0.22091,0 -0.4,0.17909 -0.4,0.4 v 3.2 c 0,0.22091 0.17909,0.4 0.4,0.4 h 3.2 c 0.22091,0 0.4,0.17909 0.4,0.4 v 3.2 c 0,0.22091 -0.17909,0.4 -0.4,0.4 h -15.2 c -0.22091,0 -0.4,0.17909 -0.4,0.4 v 7.6 z m -68,0 H 24.4 c -0.220914,0 -0.4,-0.17909 -0.4,-0.4 v -11.2 c 0,-0.22091 0.179086,-0.4 0.4,-0.4 h 11.2 c 0.220914,0 0.4,0.17909 0.4,0.4 v 11.2 c 0,0.22091 -0.179086,0.4 -0.4,0.4 z m 56,-4 h -3.2 c -0.220914,0 -0.4,-0.17909 -0.4,-0.4 v -3.2 c 0,-0.22091 0.179086,-0.4 0.4,-0.4 H 92 v 3.6 c 0,0.22091 -0.179086,0.4 -0.4,0.4 z m -24,0 h -3.2 c -0.220914,0 -0.4,-0.17909 -0.4,-0.4 v -3.2 c 0,-0.22091 0.179086,-0.4 0.4,-0.4 H 68 v 3.6 c 0,0.22091 -0.179086,0.4 -0.4,0.4 z m -16,0 h -3.2 c -0.220914,0 -0.4,-0.17909 -0.4,-0.4 v -7.2 c 0,-0.22091 0.179086,-0.4 0.4,-0.4 H 52 v 7.6 c 0,0.22091 -0.179086,0.4 -0.4,0.4 z m 60.4,-8.4 v -11.2 c 0,-0.22091 -0.17909,-0.4 -0.4,-0.4 h -11.2 c -0.22091,0 -0.4,0.17909 -0.4,0.4 v 11.2 c 0,0.22091 0.17909,0.4 0.4,0.4 h 11.2 c 0.22091,0 0.4,-0.17909 0.4,-0.4 z M 59.6,112 H 52 v -3.6 c 0,-0.22091 0.179086,-0.4 0.4,-0.4 h 7.2 c 0.220914,0 0.4,0.17909 0.4,0.4 v 3.2 c 0,0.22091 -0.179086,0.4 -0.4,0.4 z m 48,-4 h -3.2 c -0.22091,0 -0.4,-0.17909 -0.4,-0.4 v -3.2 c 0,-0.22091 0.17909,-0.4 0.4,-0.4 h 3.2 c 0.22091,0 0.4,0.17909 0.4,0.4 v 3.2 c 0,0.22091 -0.17909,0.4 -0.4,0.4 z m -40,0 h -3.2 c -0.220914,0 -0.4,-0.17909 -0.4,-0.4 v -3.2 c 0,-0.22091 0.179086,-0.4 0.4,-0.4 h 3.2 c 0.220914,0 0.4,0.17909 0.4,0.4 v 3.2 c 0,0.22091 -0.179086,0.4 -0.4,0.4 z m -12,-4 H 48.4 C 48.179086,104 48,103.82091 48,103.6 V 100 h 8 v 3.6 c 0,0.22091 -0.179086,0.4 -0.4,0.4 z m 4,-4 H 56 V 92.4 C 56,92.179086 56.179086,92 56.4,92 H 60 v 7.6 c 0,0.220914 -0.179086,0.4 -0.4,0.4 z m -12,0 H 36.4 C 36.179086,100 36,99.820914 36,99.6 V 96 h 7.6 C 43.820914,96 44,95.820914 44,95.6 V 92.4 C 44,92.179086 43.820914,92 43.6,92 H 40.4 C 40.179086,92 40,91.820914 40,91.6 V 88 h 8 v 12 z m -24,0 H 16.4 C 16.179086,100 16,99.820914 16,99.6 V 84.4 C 16,84.179086 16.179086,84 16.4,84 H 20 v 3.6 c 0,0.220914 0.179086,0.4 0.4,0.4 h 3.2 C 23.820914,88 24,87.820914 24,87.6 V 84.4 C 24,84.179086 23.820914,84 23.6,84 H 20 V 80.4 C 20,80.179086 19.820914,80 19.6,80 H 16.4 C 16.179086,80 16,79.820914 16,79.6 V 72.4 C 16,72.179086 16.179086,72 16.4,72 h 3.2 c 0.220914,0 0.4,0.179086 0.4,0.4 v 3.2 c 0,0.220914 0.179086,0.4 0.4,0.4 H 24 v 3.6 c 0,0.220914 0.179086,0.4 0.4,0.4 h 7.2 c 0.220914,0 0.4,0.179086 0.4,0.4 v 3.2 C 32,83.820914 31.820914,84 31.6,84 H 28.4 C 28.179086,84 28,84.179086 28,84.4 v 7.2 c 0,0.220914 0.179086,0.4 0.4,0.4 h 7.2 c 0.220914,0 0.4,0.179086 0.4,0.4 V 96 H 24.4 C 24.179086,96 24,96.179086 24,96.4 v 3.2 c 0,0.220914 -0.179086,0.4 -0.4,0.4 z m 72,-4 H 88 v -4 h 3.6 C 91.820914,92 92,91.820914 92,91.6 V 88.4 C 92,88.179086 91.820914,88 91.6,88 H 88 V 84.4 C 88,84.179086 88.179086,84 88.4,84 h 3.2 C 91.820914,84 92,83.820914 92,83.6 V 80.4 C 92,80.179086 91.820914,80 91.6,80 H 88.4 C 88.179086,80 88,79.820914 88,79.6 V 76.4 C 88,76.179086 87.820914,76 87.6,76 H 84 v -4 h 3.6 C 87.820914,72 88,71.820914 88,71.6 V 68.4 C 88,68.179086 88.179086,68 88.4,68 H 92 v 3.6 c 0,0.220914 0.179086,0.4 0.4,0.4 h 11.2 c 0.22091,0 0.4,-0.179086 0.4,-0.4 V 64.4 C 104,64.179086 103.82091,64 103.6,64 H 100 v -3.6 c 0,-0.220914 0.17909,-0.4 0.4,-0.4 h 7.2 c 0.22091,0 0.4,-0.179086 0.4,-0.4 V 52 h 7.6 c 0.22091,0 0.4,0.179086 0.4,0.4 V 60 h -3.6 c -0.22091,0 -0.4,0.179086 -0.4,0.4 v 7.2 c 0,0.220914 0.17909,0.4 0.4,0.4 h 15.2 c 0.22091,0 0.4,-0.179086 0.4,-0.4 v -7.2 c 0,-0.220914 0.17909,-0.4 0.4,-0.4 h 3.2 c 0.22091,0 0.4,0.179086 0.4,0.4 v 19.2 c 0,0.220914 -0.17909,0.4 -0.4,0.4 h -3.2 c -0.22091,0 -0.4,-0.179086 -0.4,-0.4 v -7.2 c 0,-0.220914 -0.17909,-0.4 -0.4,-0.4 h -3.2 c -0.22091,0 -0.4,0.179086 -0.4,0.4 v 7.2 c 0,0.220914 -0.17909,0.4 -0.4,0.4 H 120 v -7.6 c 0,-0.220914 -0.17909,-0.4 -0.4,-0.4 h -3.2 c -0.22091,0 -0.4,0.179086 -0.4,0.4 V 80 h -7.6 C 108.17909,80 108,79.820914 108,79.6 V 76 h 3.6 c 0.22091,0 0.4,-0.179086 0.4,-0.4 v -3.2 c 0,-0.220914 -0.17909,-0.4 -0.4,-0.4 h -3.2 c -0.22091,0 -0.4,0.179086 -0.4,0.4 V 76 H 96.4 C 96.179086,76 96,76.179086 96,76.4 v 3.2 c 0,0.220914 0.179086,0.4 0.4,0.4 h 7.2 c 0.22091,0 0.4,0.179086 0.4,0.4 v 3.2 c 0,0.220914 -0.17909,0.4 -0.4,0.4 H 96.4 C 96.179086,84 96,84.179086 96,84.4 V 96 Z m 36,-4 h -3.2 C 128.17909,92 128,91.820914 128,91.6 V 88 h 3.6 c 0.22091,0 0.4,0.179086 0.4,0.4 v 3.2 c 0,0.220914 -0.17909,0.4 -0.4,0.4 z m -44,0 H 84.4 C 84.179086,92 84,91.820914 84,91.6 V 88.4 C 84,88.179086 84.179086,88 84.4,88 H 88 v 4 z m -8,0 H 76 V 88.4 C 76,88.179086 75.820914,88 75.6,88 H 64.4 C 64.179086,88 64,88.179086 64,88.4 V 92 H 60 V 88.4 C 60,88.179086 59.820914,88 59.6,88 H 56.4 C 56.179086,88 56,87.820914 56,87.6 V 84.4 C 56,84.179086 55.820914,84 55.6,84 H 52.4 C 52.179086,84 52,84.179086 52,84.4 v 3.2 C 52,87.820914 51.820914,88 51.6,88 H 48 V 84.4 C 48,84.179086 47.820914,84 47.6,84 H 40 V 80.4 C 40,80.179086 40.179086,80 40.4,80 H 51.6 C 51.820914,80 52,79.820914 52,79.6 V 72 H 67.6 C 67.820914,72 68,71.820914 68,71.6 V 68.4 C 68,68.179086 67.820914,68 67.6,68 H 60.4 C 60.179086,68 60,67.820914 60,67.6 V 64.4 C 60,64.179086 59.820914,64 59.6,64 H 56.4 C 56.179086,64 56,64.179086 56,64.4 v 3.2 C 56,67.820914 55.820914,68 55.6,68 H 52 V 64.4 C 52,64.179086 51.820914,64 51.6,64 H 48 V 56.4 C 48,56.179086 47.820914,56 47.6,56 H 44 v -4 h 7.6 C 51.820914,52 52,51.820914 52,51.6 V 48 h 3.6 C 55.820914,48 56,47.820914 56,47.6 V 36 h 4 v 7.6 c 0,0.220914 0.179086,0.4 0.4,0.4 H 64 v 8 H 56.4 C 56.179086,52 56,52.179086 56,52.4 V 56 H 52.4 C 52.179086,56 52,56.179086 52,56.4 v 3.2 c 0,0.220914 0.179086,0.4 0.4,0.4 h 3.2 C 55.820914,60 56,59.820914 56,59.6 V 56 h 8 v 3.6 c 0,0.220914 0.179086,0.4 0.4,0.4 h 3.2 C 67.820914,60 68,59.820914 68,59.6 V 56.4 C 68,56.179086 67.820914,56 67.6,56 H 64 v -4 h 3.6 C 67.820914,52 68,51.820914 68,51.6 V 44 h 4 v 23.6 c 0,0.220914 0.179086,0.4 0.4,0.4 h 3.2 C 75.820914,68 76,67.820914 76,67.6 V 56.4 C 76,56.179086 76.179086,56 76.4,56 h 3.2 C 79.820914,56 80,55.820914 80,55.6 V 48.4 C 80,48.179086 79.820914,48 79.6,48 H 76.4 C 76.179086,48 76,47.820914 76,47.6 V 44 h 3.6 C 79.820914,44 80,43.820914 80,43.6 V 40.4 C 80,40.179086 79.820914,40 79.6,40 H 76 V 36.4 C 76,36.179086 75.820914,36 75.6,36 H 72.4 C 72.179086,36 72,35.820914 72,35.6 V 32.4 C 72,32.179086 72.179086,32 72.4,32 h 7.2 C 79.820914,32 80,31.820914 80,31.6 V 28.4 C 80,28.179086 79.820914,28 79.6,28 H 76.4 C 76.179086,28 76,27.820914 76,27.6 V 24.4 C 76,24.179086 76.179086,24 76.4,24 h 3.2 C 79.820914,24 80,23.820914 80,23.6 V 20.4 C 80,20.179086 79.820914,20 79.6,20 H 76.4 C 76.179086,20 76,19.820914 76,19.6 V 16.4 C 76,16.179086 76.179086,16 76.4,16 h 7.2 c 0.220914,0 0.4,0.179086 0.4,0.4 v 11.2 c 0,0.220914 0.179086,0.4 0.4,0.4 h 3.2 c 0.220914,0 0.4,0.179086 0.4,0.4 v 3.2 c 0,0.220914 0.179086,0.4 0.4,0.4 h 7.2 c 0.220914,0 0.4,0.179086 0.4,0.4 V 36 H 84.4 C 84.179086,36 84,36.179086 84,36.4 v 11.2 c 0,0.220914 0.179086,0.4 0.4,0.4 h 3.2 C 87.820914,48 88,47.820914 88,47.6 V 40.4 C 88,40.179086 88.179086,40 88.4,40 h 3.2 c 0.220914,0 0.4,0.179086 0.4,0.4 v 7.2 c 0,0.220914 0.179086,0.4 0.4,0.4 h 3.2 c 0.220914,0 0.4,0.179086 0.4,0.4 v 7.2 C 96,55.820914 95.820914,56 95.6,56 H 84.4 C 84.179086,56 84,56.179086 84,56.4 v 3.2 c 0,0.220914 0.179086,0.4 0.4,0.4 h 3.2 c 0.220914,0 0.4,0.179086 0.4,0.4 v 3.2 C 88,63.820914 87.820914,64 87.6,64 H 80.4 C 80.179086,64 80,64.179086 80,64.4 v 3.2 c 0,0.220914 0.179086,0.4 0.4,0.4 h 3.2 c 0.220914,0 0.4,0.179086 0.4,0.4 V 72 H 80.4 C 80.179086,72 80,72.179086 80,72.4 v 3.2 c 0,0.220914 0.179086,0.4 0.4,0.4 H 84 v 7.6 C 84,83.820914 83.820914,84 83.6,84 H 80.4 C 80.179086,84 80,84.179086 80,84.4 v 7.2 c 0,0.220914 -0.179086,0.4 -0.4,0.4 z m 48,-4 H 120 v -4 h 7.6 c 0.22091,0 0.4,0.179086 0.4,0.4 V 88 Z m -88,0 H 36.4 C 36.179086,88 36,87.820914 36,87.6 V 84.4 C 36,84.179086 36.179086,84 36.4,84 H 40 v 4 z m 80,-4 H 116 v -4 h 4 v 4 z M 72,83.6 V 80.4 C 72,80.179086 72.179086,80 72.4,80 h 3.2 C 75.820914,80 76,79.820914 76,79.6 V 72.4 C 76,72.179086 75.820914,72 75.6,72 H 72.4 C 72.179086,72 72,72.179086 72,72.4 v 3.2 C 72,75.820914 71.820914,76 71.6,76 H 64.4 C 64.179086,76 64,76.179086 64,76.4 v 3.2 C 64,79.820914 63.820914,80 63.6,80 H 60 V 76.4 C 60,76.179086 59.820914,76 59.6,76 H 56.4 C 56.179086,76 56,76.179086 56,76.4 v 3.2 c 0,0.220914 0.179086,0.4 0.4,0.4 H 60 v 3.6 c 0,0.220914 0.179086,0.4 0.4,0.4 H 71.6 C 71.820914,84 72,83.820914 72,83.6 Z M 43.6,76 H 36.4 C 36.179086,76 36,75.820914 36,75.6 V 68 h 4 v 3.6 c 0,0.220914 0.179086,0.4 0.4,0.4 h 3.2 c 0.220914,0 0.4,0.179086 0.4,0.4 v 3.2 c 0,0.220914 -0.179086,0.4 -0.4,0.4 z m -12,0 H 24 V 72.4 C 24,72.179086 24.179086,72 24.4,72 h 3.2 C 27.820914,72 28,71.820914 28,71.6 V 68.4 C 28,68.179086 27.820914,68 27.6,68 H 24.4 C 24.179086,68 24,67.820914 24,67.6 V 64.4 C 24,64.179086 23.820914,64 23.6,64 H 20 V 60.4 C 20,60.179086 20.179086,60 20.4,60 h 3.2 C 23.820914,60 24,59.820914 24,59.6 V 56.4 C 24,56.179086 24.179086,56 24.4,56 H 32 v 3.6 C 32,59.820914 31.820914,60 31.6,60 H 28.4 C 28.179086,60 28,60.179086 28,60.4 v 3.2 c 0,0.220914 0.179086,0.4 0.4,0.4 h 7.2 c 0.220914,0 0.4,0.179086 0.4,0.4 V 68 H 32.4 C 32.179086,68 32,68.179086 32,68.4 v 7.2 c 0,0.220914 -0.179086,0.4 -0.4,0.4 z m 20,-4 H 48.4 C 48.179086,72 48,71.820914 48,71.6 V 68 h 4 v 4 z m 48,-4 H 92 V 64.4 C 92,64.179086 92.179086,64 92.4,64 h 7.6 v 3.6 c 0,0.220914 -0.179086,0.4 -0.4,0.4 z m -52,0 H 40 V 64.4 C 40,64.179086 40.179086,64 40.4,64 H 48 v 4 z m -28,0 H 16.4 C 16.179086,68 16,67.820914 16,67.6 V 64.4 C 16,64.179086 16.179086,64 16.4,64 H 20 v 3.6 c 0,0.220914 -0.179086,0.4 -0.4,0.4 z m 100,-4 h -3.2 C 116.17909,64 116,63.820914 116,63.6 V 60 h 4 v 3.6 c 0,0.220914 -0.17909,0.4 -0.4,0.4 z m 4,-4 H 120 v -7.6 c 0,-0.220914 0.17909,-0.4 0.4,-0.4 h 7.6 v 3.6 c 0,0.220914 -0.17909,0.4 -0.4,0.4 h -3.2 c -0.22091,0 -0.4,0.179086 -0.4,0.4 v 3.2 c 0,0.220914 -0.17909,0.4 -0.4,0.4 z m -80,0 H 40.4 C 40.179086,60 40,59.820914 40,59.6 V 56 h 4 v 3.6 c 0,0.220914 -0.179086,0.4 -0.4,0.4 z m 60,-4 h -3.2 c -0.22091,0 -0.4,-0.179086 -0.4,-0.4 v -3.2 c 0,-0.220914 0.17909,-0.4 0.4,-0.4 h 3.6 v 3.6 c 0,0.220914 -0.17909,0.4 -0.4,0.4 z m -64,0 H 32 V 52.4 C 32,52.179086 31.820914,52 31.6,52 H 28.4 C 28.179086,52 28,51.820914 28,51.6 V 48.4 C 28,48.179086 28.179086,48 28.4,48 h 7.2 c 0.220914,0 0.4,0.179086 0.4,0.4 v 3.2 c 0,0.220914 0.179086,0.4 0.4,0.4 H 40 v 4 z m 92,-4 H 128 v -3.6 c 0,-0.220914 0.17909,-0.4 0.4,-0.4 h 3.2 c 0.22091,0 0.4,0.179086 0.4,0.4 v 3.2 c 0,0.220914 -0.17909,0.4 -0.4,0.4 z m -24,0 H 104 v -3.6 c 0,-0.220914 0.17909,-0.4 0.4,-0.4 h 3.2 c 0.22091,0 0.4,0.179086 0.4,0.4 V 52 Z m -64,0 H 40 V 48.4 C 40,48.179086 40.179086,48 40.4,48 h 3.2 c 0.220914,0 0.4,0.179086 0.4,0.4 V 52 Z m -20,0 H 16.4 C 16.179086,52 16,51.820914 16,51.6 V 48.4 C 16,48.179086 16.179086,48 16.4,48 h 7.2 c 0.220914,0 0.4,0.179086 0.4,0.4 v 3.2 c 0,0.220914 -0.179086,0.4 -0.4,0.4 z m 28,-4 H 48.4 C 48.179086,48 48,47.820914 48,47.6 V 40.4 C 48,40.179086 48.179086,40 48.4,40 h 3.2 c 0.220914,0 0.4,0.179086 0.4,0.4 V 48 Z m 80,-4 H 104.4 C 104.17909,44 104,43.820914 104,43.6 V 16.4 c 0,-0.220914 0.17909,-0.4 0.4,-0.4 h 27.2 c 0.22091,0 0.4,0.179086 0.4,0.4 v 27.2 c 0,0.220914 -0.17909,0.4 -0.4,0.4 z m -32,0 H 96.4 C 96.179086,44 96,43.820914 96,43.6 V 36 h 3.6 c 0.220914,0 0.4,0.179086 0.4,0.4 v 7.2 c 0,0.220914 -0.179086,0.4 -0.4,0.4 z m -24,0 H 72 V 40.4 C 72,40.179086 72.179086,40 72.4,40 H 76 v 4 z m -8,0 H 64 v -8 h 3.6 c 0.220914,0 0.4,0.179086 0.4,0.4 V 44 Z m -24,0 H 16.4 C 16.179086,44 16,43.820914 16,43.6 V 16.4 C 16,16.179086 16.179086,16 16.4,16 h 27.2 c 0.220914,0 0.4,0.179086 0.4,0.4 V 43.6 C 44,43.820914 43.820914,44 43.6,44 Z M 128,39.6 V 20.4 c 0,-0.220914 -0.17909,-0.4 -0.4,-0.4 h -19.2 c -0.22091,0 -0.4,0.179086 -0.4,0.4 v 19.2 c 0,0.220914 0.17909,0.4 0.4,0.4 h 19.2 c 0.22091,0 0.4,-0.179086 0.4,-0.4 z m -88,0 V 20.4 C 40,20.179086 39.820914,20 39.6,20 H 20.4 C 20.179086,20 20,20.179086 20,20.4 v 19.2 c 0,0.220914 0.179086,0.4 0.4,0.4 H 39.6 C 39.820914,40 40,39.820914 40,39.6 Z M 123.6,36 H 112.4 C 112.17909,36 112,35.820914 112,35.6 V 24.4 c 0,-0.220914 0.17909,-0.4 0.4,-0.4 h 11.2 c 0.22091,0 0.4,0.179086 0.4,0.4 v 11.2 c 0,0.220914 -0.17909,0.4 -0.4,0.4 z m -60,0 H 60 V 32.4 C 60,32.179086 60.179086,32 60.4,32 H 64 v 4 z m -8,0 H 52.4 C 52.179086,36 52,35.820914 52,35.6 V 32.4 C 52,32.179086 52.179086,32 52.4,32 h 3.2 c 0.220914,0 0.4,0.179086 0.4,0.4 V 36 Z m -20,0 H 24.4 C 24.179086,36 24,35.820914 24,35.6 V 24.4 C 24,24.179086 24.179086,24 24.4,24 h 11.2 c 0.220914,0 0.4,0.179086 0.4,0.4 v 11.2 c 0,0.220914 -0.179086,0.4 -0.4,0.4 z m 32,-4 H 64 V 24.4 C 64,24.179086 64.179086,24 64.4,24 h 3.2 c 0.220914,0 0.4,0.179086 0.4,0.4 v 7.2 c 0,0.220914 -0.179086,0.4 -0.4,0.4 z m -8,-4 H 56.4 C 56.179086,28 56,27.820914 56,27.6 V 24.4 C 56,24.179086 55.820914,24 55.6,24 H 52.4 C 52.179086,24 52,23.820914 52,23.6 V 20 h 8 v 7.6 c 0,0.220914 -0.179086,0.4 -0.4,0.4 z m 40,-4 H 88.4 C 88.179086,24 88,23.820914 88,23.6 V 16.4 C 88,16.179086 88.179086,16 88.4,16 h 3.2 c 0.220914,0 0.4,0.179086 0.4,0.4 v 3.2 c 0,0.220914 0.179086,0.4 0.4,0.4 h 7.2 c 0.220914,0 0.4,0.179086 0.4,0.4 v 3.2 c 0,0.220914 -0.179086,0.4 -0.4,0.4 z m -32,-4 H 60 V 16.4 C 60,16.179086 60.179086,16 60.4,16 h 7.2 c 0.220914,0 0.4,0.179086 0.4,0.4 v 3.2 c 0,0.220914 -0.179086,0.4 -0.4,0.4 z m -16,0 H 48.4 C 48.179086,20 48,19.820914 48,19.6 V 16.4 C 48,16.179086 48.179086,16 48.4,16 h 3.2 c 0.220914,0 0.4,0.179086 0.4,0.4 V 20 Z"
         id="path21342" />
    </g>
    <text
       xml:space="preserve"
       transform="matrix(0.26458333,0,0,0.26458333,12.823507,-23.727171)"
       id="text30175"
       style="font-size:16px;line-height:1.25;font-family:'CMU Serif';-inkscape-font-specification:'CMU Serif';text-align:center;letter-spacing:0px;word-spacing:0px;white-space:pre;shape-inside:url(#rect30177)"
       x="158.98047"
       y="0"><tspan
         x="-15.373047"
         y="228.85623"
         id="tspan39411"><tspan
           style="font-family:'Liberation Serif';-inkscape-font-specification:'Liberation Serif'"
           id="tspan39409">This board comes pre-loaded with a demo </tspan></tspan><tspan
         x="-39.806641"
         y="248.90192"
         id="tspan39415"><tspan
           style="font-family:'Liberation Serif';-inkscape-font-specification:'Liberation Serif'"
           id="tspan39413">application. Connect it to a computer and connect </tspan></tspan><tspan
         x="-16.255859"
         y="268.9476"
         id="tspan39419"><tspan
           style="font-family:'Liberation Serif';-inkscape-font-specification:'Liberation Serif'"
           id="tspan39417">to the new serial terminal, then type 'help'.</tspan></tspan></text>
  </g>
</svg>
