<?xml version="1.0" encoding="UTF-8" standalone="no"?>
<!-- Created with Inkscape (http://www.inkscape.org/) -->

<svg
   width="136.70383mm"
   height="55.133179mm"
   viewBox="0 0 136.70383 55.133179"
   version="1.1"
   id="svg5"
   inkscape:version="1.1.1 (3bf5ae0d25, 2021-09-20)"
   sodipodi:docname="bluegrass.svg"
   xmlns:inkscape="http://www.inkscape.org/namespaces/inkscape"
   xmlns:sodipodi="http://sodipodi.sourceforge.net/DTD/sodipodi-0.dtd"
   xmlns="http://www.w3.org/2000/svg"
   xmlns:svg="http://www.w3.org/2000/svg">
  <sodipodi:namedview
     id="namedview7"
     pagecolor="#ffffff"
     bordercolor="#666666"
     borderopacity="1.0"
     inkscape:pageshadow="2"
     inkscape:pageopacity="0.0"
     inkscape:pagecheckerboard="0"
     inkscape:document-units="mm"
     showgrid="false"
     inkscape:zoom="1"
     inkscape:cx="217.5"
     inkscape:cy="92"
     inkscape:window-width="1832"
     inkscape:window-height="952"
     inkscape:window-x="1959"
     inkscape:window-y="29"
     inkscape:window-maximized="0"
     inkscape:current-layer="layer1"
     fit-margin-top="0"
     fit-margin-left="0"
     fit-margin-right="0"
     fit-margin-bottom="0" />
  <defs
     id="defs2">
    <rect
       x="64.346717"
       y="210.01071"
       width="532.45141"
       height="229.1026"
       id="rect58691" />
    <rect
       x="229.1026"
       y="235.46656"
       width="399.51533"
       height="204.35386"
       id="rect55209" />
    <inkscape:path-effect
       effect="envelope"
       id="path-effect51968"
       is_visible="true"
       lpeversion="1"
       yy="true"
       xx="true"
       bendpath1="m 260.22696,247.38168 c 0,0 33.7258,-3.35876 87.66766,-3.35876"
       bendpath2="m 347.89462,244.02292 v 24.416"
       bendpath3="m 261.46439,271.79767 c 0,0 34.98668,-3.35875 86.43023,-3.35875"
       bendpath4="m 261.11084,249.32622 v 24.416"
       bendpath4-nodetypes="cc"
       bendpath1-nodetypes="cc"
       bendpath3-nodetypes="cc" />
    <inkscape:path-effect
       effect="perspective-envelope"
       up_left_point="261.11084,244.02292"
       up_right_point="347.89462,244.02292"
       down_left_point="261.11084,268.43892"
       down_right_point="347.89462,268.43892"
       id="path-effect51966"
       is_visible="true"
       lpeversion="1"
       deform_type="perspective"
       horizontal_mirror="false"
       vertical_mirror="false"
       overflow_perspective="false" />
    <rect
       x="260.2153"
       y="238.29499"
       width="287.79246"
       height="116.67262"
       id="rect46225" />
    <rect
       x="91.7444"
       y="436.46048"
       width="99.839493"
       height="41.824646"
       id="rect29727" />
    <rect
       x="145.03709"
       y="421.61948"
       width="483.00726"
       height="195.63144"
       id="rect20933" />
    <inkscape:path-effect
       effect="envelope"
       id="path-effect17196"
       is_visible="true"
       lpeversion="1"
       yy="true"
       xx="true"
       bendpath1="M 24.905973,78.255204 C 55.031892,86.376298 127.92002,48.448112 157.55007,57.01542"
       bendpath2="M 157.55007,56.673574 V 80.984762"
       bendpath3="M 24.905973,101.93535 C 53.763617,110.31706 127.2487,71.543603 157.55007,80.467882"
       bendpath4="M 24.905973,78.255204 V 101.93535"
       bendpath1-nodetypes="cc"
       bendpath3-nodetypes="cc"
       bendpath2-nodetypes="cc" />
    <inkscape:path-effect
       effect="lattice2"
       gridpoint0="24.905973,78.255204"
       gridpoint1="157.55007,78.255204"
       gridpoint2="24.905973,101.93535"
       gridpoint3="157.55007,101.93535"
       gridpoint4="58.066997,74.953221"
       gridpoint5="124.38905,78.255204"
       gridpoint6="57.751476,99.595241"
       gridpoint7="124.38905,101.93535"
       gridpoint8x9="91.228022,66.385913"
       gridpoint10x11="91.228022,90.512273"
       gridpoint12="24.905973,84.175241"
       gridpoint13="157.55007,84.175241"
       gridpoint14="24.905973,96.015314"
       gridpoint15="157.55007,96.015314"
       gridpoint16="58.066997,84.175241"
       gridpoint17="124.38905,84.175241"
       gridpoint18="58.066997,96.015314"
       gridpoint19="124.38905,96.015314"
       gridpoint20x21="91.228022,84.175241"
       gridpoint22x23="91.228022,96.015314"
       gridpoint24x26="24.905973,90.095277"
       gridpoint25x27="157.55007,90.095277"
       gridpoint28x30="58.066997,90.095277"
       gridpoint29x31="124.38905,90.095277"
       gridpoint32x33x34x35="91.228022,90.095277"
       id="path-effect16833"
       is_visible="true"
       lpeversion="1"
       horizontal_mirror="false"
       vertical_mirror="false"
       perimetral="true"
       live_update="true" />
    <inkscape:path-effect
       effect="lattice2"
       gridpoint0="24.905973,78.255204"
       gridpoint1="157.55007,78.255204"
       gridpoint2="24.905973,101.93535"
       gridpoint3="157.55007,101.93535"
       gridpoint4="58.066997,78.255204"
       gridpoint5="124.38905,78.255204"
       gridpoint6="58.066997,101.93535"
       gridpoint7="124.38905,101.93535"
       gridpoint8x9="91.228022,78.255204"
       gridpoint10x11="91.228022,101.93535"
       gridpoint12="24.905973,84.175241"
       gridpoint13="157.55007,84.175241"
       gridpoint14="24.905973,96.015314"
       gridpoint15="157.55007,96.015314"
       gridpoint16="-0.037216405,41.212879"
       gridpoint17="105.02097,41.212879"
       gridpoint18="-0.037216405,81.694526"
       gridpoint19="105.02097,81.694526"
       gridpoint20x21="52.491879,41.212879"
       gridpoint22x23="52.491879,81.694526"
       gridpoint24x26="24.905973,90.095277"
       gridpoint25x27="157.55007,90.095277"
       gridpoint28x30="-0.037216405,61.453703"
       gridpoint29x31="105.02097,61.453703"
       gridpoint32x33x34x35="52.491879,61.453703"
       id="path-effect13798"
       is_visible="true"
       lpeversion="1"
       horizontal_mirror="false"
       vertical_mirror="false"
       perimetral="true"
       live_update="true" />
    <rect
       x="91.7444"
       y="82.300117"
       width="528.46588"
       height="96.098038"
       id="rect1530" />
  </defs>
  <g
     inkscape:label="Layer 1"
     inkscape:groupmode="layer"
     id="layer1"
     transform="translate(-22.947351,-51.759007)">
    <path
       id="path60689"
       style="opacity:1;fill:#000000;fill-opacity:1;stroke:none;stroke-width:6.42875;stroke-linecap:round;stroke-linejoin:round;stroke-miterlimit:4;stroke-dasharray:none;stroke-opacity:1;paint-order:stroke fill markers;stop-color:#000000"
       d="M 441.78711 135.11328 A 63.444913 30.970744 0 0 0 378.3418 166.08398 A 63.444913 30.970744 0 0 0 441.78711 197.05469 A 63.444913 30.970744 0 0 0 505.23242 166.08398 A 63.444913 30.970744 0 0 0 441.78711 135.11328 z M 481.97852 153.87695 C 482.84252 153.87695 483.45117 154.51566 483.45117 155.34766 L 483.45117 175.79688 L 483.80273 175.98828 C 484.53872 175.98828 485.17969 176.43602 485.17969 176.91602 C 485.17969 177.46001 484.53872 177.9082 483.80273 177.9082 L 475.16406 177.9082 C 474.36405 177.9082 473.78711 177.46001 473.78711 176.91602 C 473.78711 176.43602 474.36405 175.98828 475.16406 175.98828 L 475.45117 175.79688 L 475.45117 159.89258 L 471.74023 159.89258 C 470.97223 159.89258 470.36328 159.47564 470.36328 158.93164 C 470.36328 158.41964 471.45223 158.16512 471.74023 158.03711 L 481.08398 154.06836 C 481.404 153.94035 481.72264 153.87695 481.97852 153.87695 z M 399.74023 154.22852 L 411.64258 154.22852 C 417.14659 154.22852 420.31445 158.48363 420.31445 162.51562 C 420.31445 165.65162 418.39468 168.62848 414.13867 169.39648 L 414.13867 169.62109 L 415.51562 169.9082 C 417.30761 170.2922 419.48242 171.69972 419.48242 173.01172 C 419.48242 173.20372 419.41992 173.87683 419.41992 174.54883 C 419.41992 176.37283 421.14648 175.89201 421.14648 176.91602 L 421.14844 176.91602 C 421.14844 177.46001 420.25344 177.9082 419.77344 177.9082 L 413.59766 177.9082 C 411.48554 177.9082 411.22852 175.31619 411.22852 173.49219 C 411.22852 172.94819 411.25977 172.46845 411.25977 172.14844 C 411.25977 170.35644 410.04258 170.06836 408.05859 170.06836 L 408.05859 175.79688 L 408.41211 175.98828 C 409.1481 175.98828 409.78711 176.43602 409.78711 176.91602 C 409.78711 177.46001 409.1481 177.9082 408.41211 177.9082 L 399.80273 177.9082 C 398.97071 177.9082 398.42773 177.46001 398.42773 176.91602 C 398.42773 176.43602 398.97071 175.98828 399.80273 175.98828 L 400.05859 175.79688 L 400.05859 156.30859 C 399.38659 155.8926 398.39453 156.05225 398.39453 155.15625 C 398.39453 154.64425 398.97223 154.22852 399.74023 154.22852 z M 452.31445 155.98828 C 453.75445 155.98828 455.67578 156.7884 455.67578 159.31641 C 455.67578 159.98841 455.51544 160.78805 455.19531 161.74805 L 449.5625 177.9082 L 446.52344 177.9082 L 440.44336 159.95703 L 439.48242 159.95703 C 438.93843 159.95703 438.33203 159.5401 438.33203 158.99609 C 438.33203 158.4841 438.71442 158.09961 439.48242 158.09961 L 446.42773 158.09961 C 447.19573 158.09961 447.58036 158.67625 447.74023 159.15625 L 450.04297 166.00391 C 450.13897 166.25991 450.36327 166.45312 450.61914 166.45312 C 450.81103 166.45312 451.03486 166.32392 451.13086 166.00391 C 452.15662 162.9639 452.1875 162.80528 452.1875 162.61328 C 452.1875 161.04528 449.69141 160.49947 449.69141 158.35547 C 449.69141 157.04347 450.74648 155.98828 452.31445 155.98828 z M 409.17969 156.4043 C 408.31569 156.4043 407.48438 156.72419 407.48438 157.49219 C 407.48438 157.84419 408.21875 158.00528 408.21875 158.61328 L 408.21875 165.52344 C 408.21875 166.22744 407.48438 166.54764 407.48438 166.93164 C 407.48438 167.73164 408.25051 168.01953 409.14648 168.01953 C 410.0425 168.01953 411.03516 166.90127 411.03516 166.19727 L 411.03516 158.16406 C 411.03516 157.39606 410.0757 156.4043 409.17969 156.4043 z M 429.97852 157.8125 C 434.81053 157.8125 437.53125 160.62873 437.53125 164.05273 C 437.53125 164.24473 437.40264 164.69141 436.89062 164.69141 L 428.85938 164.69141 L 428.85938 175.76367 C 428.85937 176.43567 429.81913 176.85156 430.61914 176.85156 C 431.61112 176.85156 432.41211 176.30842 432.41211 175.73242 C 432.41211 175.38042 432.15625 174.96362 432.15625 174.51562 C 432.15625 173.45964 433.21175 172.5957 434.42773 172.5957 C 435.67573 172.5957 436.73047 173.45964 436.73047 174.51562 C 436.73047 176.59562 432.57052 178.29297 429.97852 178.29297 C 423.70654 178.29297 420.53906 173.13953 420.53906 168.01953 C 420.53906 162.89953 423.67453 157.8125 429.97852 157.8125 z M 430.7793 159.1875 C 429.65931 159.1875 428.76367 160.24509 428.76367 161.62109 L 428.76367 163.54102 L 432.79492 163.54102 L 432.79492 161.62109 C 432.79492 160.24509 431.9313 159.1875 430.7793 159.1875 z M 457.4043 172.5957 C 459.29228 172.5957 460.82812 173.87731 460.82812 175.44531 C 460.82813 177.01331 459.29228 178.29297 457.4043 178.29297 C 455.51631 178.29297 453.97852 177.01331 453.97852 175.44531 C 453.97852 173.87731 455.51631 172.5957 457.4043 172.5957 z "
       transform="matrix(0.26458333,0,0,0.26458333,22.947351,51.759007)" />
    <path
       id="path13779"
       style="font-size:85.3333px;line-height:1.25;font-family:'Wooden Nickel NF';-inkscape-font-specification:'Wooden Nickel NF';letter-spacing:0px;word-spacing:0px;white-space:pre;stroke-width:0.305053"
       d="m 96.430831,65.942956 c -0.665881,0.191483 -1.220396,0.750338 -1.797676,0.914627 -0.444064,0.126376 -0.599248,-0.07225 -2.219134,0.393309 -0.344564,0.09903 -0.678304,0.220753 -1.000861,0.36256 0,0 -1e-6,0 -1e-6,0 -0.235126,0.103381 -0.464486,0.217591 -0.687923,0.341673 0,0 -10e-7,0 -10e-7,0 -4.151722,2.305079 -6.31331,7.868929 -6.316399,13.164687 -0.003,5.227327 2.084833,9.96758 6.277958,9.65551 0,0 0,0 0,0 0.222837,-0.01659 0.451686,-0.0465 0.686691,-0.09003 0,0 10e-7,0 10e-7,0 0.245303,-0.04544 0.497191,-0.105694 0.755837,-0.181075 1.150641,-0.335349 2.399597,-1.085537 3.783571,-2.298119 0.290639,-0.241265 0.514025,-0.382195 0.714288,-0.436459 0.890212,-0.241213 1.162884,0.965088 2.140668,0.688271 0.688892,-0.195029 0.939323,-0.591437 0.945616,-0.977095 0.0088,-0.536301 -0.426198,-1.132512 -0.555907,-1.474474 0.0359,-2.844218 0.05368,-5.783275 0.05465,-8.981033 0.717239,-0.157996 1.05392,-0.683958 1.05358,-1.109632 -3.7e-4,-0.456078 -0.314956,-0.815867 -0.942363,-0.676275 -2.019607,0.449343 -4.029272,0.904015 -6.047056,1.361885 -0.626789,0.14223 -0.962412,0.640881 -0.962646,1.091961 -1.89e-4,0.361164 0.245998,0.636487 0.738572,0.645977 -0.0017,2.613334 -0.0068,4.898432 -0.01618,7.405502 -0.002,0.528436 0.619952,0.796519 0.617983,1.324955 -0.0035,0.705827 -0.383751,1.168542 -1.207156,1.390233 -0.360495,0.09706 -0.778464,-0.120383 -1.068383,-0.50574 -0.210978,-0.280918 -0.353015,-0.650225 -0.352294,-1.042621 0.01231,-6.699109 0.0075,-9.043861 0.01977,-15.74297 9.82e-4,-0.405424 0.130469,-0.900096 0.357878,-1.351647 0.291282,-0.577571 0.745426,-1.089053 1.294282,-1.239116 2.268298,-0.620176 2.969487,4.396347 4.915511,3.939186 0.581701,-0.136654 0.983102,-0.634384 0.981087,-1.10359 -2.68e-4,-0.06242 -0.0073,-0.185322 -1.251072,-5.011272 -0.09058,-0.3823 -0.491169,-0.580463 -0.912894,-0.45919 z m 44.066359,-8.878343 c -4.28805,0.323657 -5.86547,5.193851 -5.82485,9.376257 0.0294,3.030279 0.89269,5.640321 2.29214,6.929741 1.58137,1.468984 3.88723,3.033295 4.03959,4.552937 -0.0156,0.771394 -0.88009,1.479148 -1.49956,1.527072 -0.49414,0.03823 -0.63564,-0.556452 -0.98409,-1.192088 -0.34398,-0.627475 -0.89405,-1.294128 -2.16839,-1.160193 -1.39049,0.146143 -1.85865,0.870069 -1.88541,1.736637 -0.0572,1.85086 3.0095,1.861079 4.79043,1.735155 2.0733,-0.146596 4.00443,-0.90014 5.18647,-2.392888 0.0856,-0.108359 0.16744,-0.220637 0.24532,-0.336877 0.44038,-0.655818 0.75289,-1.437438 0.90332,-2.345682 0.0947,-0.532213 0.1199,-1.075777 0.12193,-1.574231 0.006,-1.555642 -0.36599,-2.944481 -0.9826,-4.249085 -0.0762,-0.161144 -0.15603,-0.32108 -0.23941,-0.480078 -1.2548,-2.392705 -3.30026,-4.5341 -5.33645,-7.515046 -0.18624,-0.236995 -0.25879,-0.486942 -0.26278,-0.744617 -0.012,-0.774935 0.68546,-1.440209 1.34926,-1.497177 2.02101,-0.173448 0.94809,3.518848 2.9691,3.3454 0.47124,-0.04007 0.91567,-0.255931 1.2479,-0.598177 0.0874,-0.09028 0.16711,-0.189386 0.23763,-0.29649 0.21901,-0.331786 0.34938,-0.741015 0.34497,-1.205037 -0.005,-0.479676 -0.13971,-0.935747 -0.37055,-1.354259 -0.0727,-0.131882 -0.15499,-0.260001 -0.24562,-0.38383 -0.8679,-1.186022 -2.50586,-1.984812 -3.92835,-1.877444 z m 11.96956,-0.367651 c -2.14347,-0.03712 -3.61101,1.02482 -4.56765,2.683239 -0.94575,1.63955 -1.35367,3.809949 -1.34661,5.857012 0.0102,2.939918 0.87152,5.624324 2.2759,6.97923 1.58558,1.541965 3.8956,3.274396 4.07711,5.037649 1.6e-4,0.902786 -0.83936,1.683137 -1.45552,1.688925 -0.4905,0.0046 -0.65085,-0.71057 -1.01072,-1.444509 -0.3589,-0.731963 -0.91304,-1.47215 -2.18771,-1.386951 -1.3885,0.09281 -1.84959,0.829598 -1.8603,1.763265 -0.0242,2.106734 3.08736,2.354884 4.84577,2.394129 1.5362,0.03429 2.94461,-0.366045 4.04558,-1.329717 1.0978,-0.960899 1.87284,-2.478144 2.13272,-4.39909 0.0896,-0.614954 0.11154,-1.228317 0.11121,-1.778241 -0.002,-2.552151 -0.82547,-4.420575 -2.04164,-6.193203 -1.21617,-1.772627 -2.82281,-3.476593 -4.41788,-5.763092 -0.18225,-0.227449 -0.25128,-0.463358 -0.2519,-0.702568 -0.002,-0.717684 0.70288,-1.290278 1.36202,-1.305158 1.72741,-0.039 0.6181,3.276629 2.89652,3.107376 0.97001,-0.07206 1.82578,-0.82121 1.82622,-1.831748 7.8e-4,-1.776095 -2.40648,-3.34145 -4.43312,-3.376548 z M 80.371641,70.968738 c -0.02224,0.0061 -0.718377,0.457346 -1.408888,0.642311 -2.544478,0.681581 -5.078412,1.336576 -7.634558,1.958754 -0.537041,0.130718 -0.749817,0.465723 -0.763507,0.858092 -0.01452,0.416055 0.625386,0.594912 0.715095,0.574217 -8.54e-4,-3.4e-5 0.557072,0.02222 0.556217,0.02219 -0.13424,4.797989 -0.135002,11.908384 -0.0141,18.393863 0.0013,-3.03e-4 -0.561469,0.132481 -0.560191,0.132178 -0.515116,0.121049 -0.730386,0.612839 -0.718506,1.160002 0.01339,0.616853 0.269455,0.969453 0.761159,0.846406 2.88418,-0.721752 5.737037,-1.483068 8.607331,-2.274142 0.867729,-0.239152 1.228486,0.03898 1.917357,-0.155987 0.665692,-0.188407 0.835639,-1.014795 0.919161,-1.561578 0.132552,-0.891634 0.267666,-1.783264 0.403791,-2.66792 -5.64e-4,-0.09204 0.02088,-0.189798 0.02032,-0.281842 -0.0029,-0.491501 -0.22846,-0.928096 -0.921309,-0.761474 -0.380125,0.09142 -0.736248,0.393353 -0.868338,0.736698 -0.249294,0.620031 -0.497843,1.244362 -0.745102,1.872677 -0.152324,0.383231 -0.417024,0.864088 -0.99618,1.013393 -0.557506,0.143724 -1.115004,0.286553 -1.672875,0.428424 -0.04638,-3.418992 -0.06384,-7.028356 -0.05909,-10.198865 0.0097,-0.0021 1.178698,-0.253976 1.188425,-0.256062 0.874513,-0.189311 1.255401,-0.214177 1.434273,0.226226 0.673676,1.176436 1.029887,1.311938 1.412315,1.227202 0.627279,-0.138989 0.985362,-0.733389 0.985448,-1.12391 2e-5,-0.09029 -0.02231,-0.205654 -0.06708,-0.285859 -0.493486,-0.944478 -0.982196,-1.874283 -1.471955,-2.793635 -0.06678,-0.161794 -0.557789,-0.40171 -0.983664,-0.306638 -0.42569,0.09503 -0.78655,0.610734 -0.788356,1.050666 -2.4e-4,0.05866 -3.1e-4,0.117235 0.02188,0.171078 -0.575405,0.126253 -1.150711,0.251689 -1.7264,0.376283 0.0094,-2.205699 0.03112,-4.385919 0.0717,-6.396167 0.0081,-0.0104 0.197124,-0.253004 0.205228,-0.263406 0.53595,-0.134668 1.071563,-0.270272 1.607161,-0.406755 1.183444,2.082995 1.512791,2.193411 1.907716,2.099005 0.581398,-0.138989 0.964376,-0.628905 0.968818,-1.053968 0.0012,-0.113112 -0.0199,-0.220354 -0.0633,-0.321922 -0.326108,-0.734392 -0.648353,-1.449645 -0.967906,-2.146644 -0.214362,-0.429793 -0.804217,-0.661063 -1.272088,-0.532886 z M 55.92725,76.753976 c -0.544126,0.09207 -0.990325,0.440457 -1.00654,0.794994 -0.01722,0.376412 0.402548,0.607257 0.946456,0.518129 0.07376,0.0335 0.147532,0.06714 0.221319,0.100916 -0.151133,3.948385 -0.165776,9.816516 -0.05593,15.937815 0.06039,3.365527 3.159925,4.705879 6.154915,4.070451 2.994994,-0.635429 5.897575,-3.091248 5.847205,-6.308505 -0.09121,-5.825751 -0.07958,-11.778391 0.05533,-16.00178 0.0077,-0.0067 0.221155,-0.190306 0.228883,-0.196957 0.539118,-0.11839 0.975307,-0.536249 0.990411,-0.950171 0.01422,-0.389698 -0.39896,-0.59528 -0.936957,-0.470788 -0.897127,0.207593 -1.794496,0.409977 -2.693598,0.60703 -0.539409,0.11822 -0.981226,0.505199 -0.996779,0.879662 -0.01652,0.39787 0.400417,0.624328 0.940345,0.511725 0.07313,0.03272 0.14629,0.0656 0.219467,0.09864 -0.135276,3.982696 -0.151596,9.514895 -0.07066,15.076097 0.01997,1.372232 -1.02062,2.35627 -2.057145,2.562479 -1.035004,0.205907 -2.04546,-0.342476 -2.068211,-1.813306 -0.08728,-5.642975 -0.06936,-11.123303 0.07332,-15.002221 0.0023,-0.0017 0.251381,-0.187852 0.253678,-0.189569 0.519018,-0.0999 0.958331,-0.493531 0.975285,-0.887779 0.01591,-0.369952 -0.397521,-0.573051 -0.916096,-0.468667 -2.032395,0.4091 -4.061012,0.78601 -6.104706,1.131808 z m 45.01948,-11.285537 c -0.53381,0.14602 -0.93116,0.675392 -0.92731,1.185755 0.007,0.895414 0.6963,0.55427 1.16843,0.85279 0.0567,6.80118 0.0639,12.527767 -0.0237,18.119825 0.003,-0.0037 -0.18451,0.206193 -0.18123,0.202528 -0.5803,0.148343 -0.96465,0.614653 -0.97081,1.005355 -0.007,0.443503 0.36553,0.693042 0.94399,0.535395 1.99835,-0.544606 3.99253,-1.074471 5.99743,-1.585693 0.51338,-0.130906 0.97141,-0.569323 0.98302,-0.973989 0.0102,-0.356747 -0.42862,-0.59661 -0.94356,-0.473156 -0.0809,-0.02977 -0.16184,-0.05974 -0.2428,-0.0899 0.0348,-1.48866 0.0594,-3.077756 0.0742,-4.760326 1.39002,-0.293718 2.24736,-0.204785 2.22451,1.311751 -0.004,0.26768 -0.0325,0.670755 -0.0408,1.111771 -0.029,1.532864 0.0967,3.329373 1.5681,2.974896 1.44131,-0.34724 2.88219,-0.681271 4.32849,-1.001274 0.33666,-0.07449 0.9804,-0.511537 0.99528,-0.886627 0.0282,-0.710463 -1.19635,-0.08547 -1.15844,-1.471437 0.014,-0.51062 0.0711,-1.051166 0.0744,-1.203991 0.022,-1.03291 -1.49381,-1.956388 -2.75225,-2.043435 -0.0602,-0.0038 -0.9047,-0.05754 -0.96487,-0.06137 0,-4.5e-5 0.002,-0.196563 0.002,-0.196607 3.00225,-1.271976 4.3729,-4.124129 4.34879,-7.319243 -0.0306,-4.056806 -2.36297,-8.378199 -6.20757,-7.415685 -2.77825,0.695546 -5.5291,1.426105 -8.29494,2.182669 z M 25.830115,78.982363 c -0.584771,-0.0139 -0.850953,0.338357 -0.84913,0.758179 0.0021,0.479795 0.384334,0.978632 1.12663,0.958209 0.01376,5.947383 0.01229,12.08411 -4.62e-4,18.426031 -0.06016,0.07409 -0.12033,0.147875 -0.180485,0.221331 -0.696448,0.01636 -1.033021,0.473569 -1.034728,0.922917 -0.0017,0.44934 0.331017,0.88068 0.959863,0.89946 3.234739,0.0966 6.161569,0.0983 9.467325,-0.031 0.831745,-0.0325 1.579266,-0.23545 2.246159,-0.57504 0.13161,-0.0672 0.259911,-0.13971 0.384918,-0.21722 2.352891,-1.455655 3.544002,-4.639327 3.523828,-7.416784 -0.01957,-2.694992 -1.172945,-5.013835 -3.601213,-5.879785 0,0 0,0 0,0 -0.124478,-0.04425 -0.252357,-0.0848 -0.383643,-0.121512 0,0 0,0 -10e-7,0 -0.225662,-0.06342 -0.461349,-0.115482 -0.707005,-0.155434 0.247265,-0.06557 0.483183,-0.141387 0.707926,-0.22632 0,0 1e-6,-10e-7 1e-6,-10e-7 0.132043,-0.0502 0.260155,-0.103572 0.38437,-0.159884 0,0 0,0 0,0 2.052904,-0.926629 3.052586,-2.627481 3.073083,-4.085953 0.02136,-1.519722 -0.99462,-2.780543 -2.99178,-3.223312 -0.124663,-0.02755 -0.253215,-0.05197 -0.385576,-0.07309 0,0 0,0 0,0 -0.502649,-0.0806 -1.063437,-0.113885 -1.674557,-0.08886 -3.525915,0.144405 -6.609848,0.150156 -10.065523,0.06802 z m 18.017013,-0.597778 c -0.618266,0.05774 -0.995108,0.367209 -1.005522,0.679369 -0.01267,0.37981 0.846996,0.61547 0.960591,0.604214 0.0032,7.61e-4 0.336135,0.07893 0.339372,0.07969 -0.123823,4.167041 -0.12996,11.301865 -0.0038,18.326094 0.0035,-0.0023 -0.342817,0.223022 -0.339351,0.220766 -0.570478,0.0584 -0.973045,0.614562 -0.962297,1.178345 0.0122,0.640227 1.007824,1.081517 1.007824,1.081517 2.889231,-0.28514 5.706626,-0.654274 8.577596,-1.103858 0.428517,-0.0671 0.741598,-0.01421 1.035052,0.04238 0,0 0,0 0,0 0.208738,0.04024 0.407478,0.08232 0.629434,0.08334 0.09495,4.39e-4 0.1942,-0.0066 0.300407,-0.02458 0.679197,-0.114759 0.834986,-1.098353 0.908697,-1.739293 0.109435,-1.048986 0.223245,-2.075928 0.34043,-3.077092 0.02062,-0.109936 0.04107,-0.219585 0.03848,-0.360488 -0.0097,-0.528739 -0.312417,-1.000209 -0.946907,-0.902142 -0.318395,0.04921 -0.607172,0.241454 -0.769524,0.49843 0,0 0,0 0,0 -0.04564,0.07226 -0.08132,0.149647 -0.104872,0.230427 -0.164595,0.435865 -0.328716,0.876408 -0.492213,1.321349 -0.08853,0.240872 -0.176878,0.483084 -0.265045,0.72663 -0.106582,0.305286 -0.459432,0.914259 -1.026582,0.999052 -0.530408,0.0793 -1.06065,0.15641 -1.591637,0.231322 -0.15961,-7.153716 -0.154108,-14.221016 0.0013,-18.465179 0.0073,-0.0037 0.36192,-0.18276 0.369213,-0.186444 0.5462,-0.07586 0.989067,-0.434944 1.005834,-0.808284 0.01578,-0.351426 -0.402778,-0.541479 -0.949591,-0.464558 -2.358117,0.331722 -4.687905,0.607757 -7.056803,0.828993 z M 121.18883,60.635132 c -0.5417,0.106383 -0.73368,0.592196 -0.72028,1.177478 0.0134,0.585288 0.2264,1.014996 0.76847,0.913385 0.35378,-0.06632 0.70766,-0.131781 1.06174,-0.196396 -1.0274,7.786294 -2.21831,14.398697 -3.5822,19.302491 -0.26316,0.05067 -0.52622,0.101805 -0.78921,0.153416 -0.45104,0.08851 -0.75352,0.420596 -0.76899,0.794449 -0.0136,0.328781 0.22014,0.571383 0.71571,0.469145 1.28468,-0.265035 2.56941,-0.517205 3.8586,-0.756441 0.52004,-0.0965 0.76107,-0.419084 0.77551,-0.736001 0.0164,-0.358701 -0.19985,-0.585707 -0.71995,-0.493297 -0.2562,0.04552 -0.51231,0.09151 -0.76835,0.137968 0.19897,-0.688702 0.39415,-1.413484 0.5857,-2.173103 1.34312,-0.227714 2.68454,-0.443768 4.03108,-0.649069 0.14054,0.697722 0.27721,1.355832 0.41008,1.972685 -0.26468,0.0414 -0.52926,0.08331 -0.79378,0.125743 -0.54415,0.08728 -0.73661,0.401937 -0.75206,0.735779 -0.0155,0.333856 0.24251,0.545275 0.69606,0.469918 0.99774,-0.165771 1.99571,-0.323113 2.99618,-0.472283 0.1467,-0.02189 0.29344,-0.04359 0.44022,-0.06511 1.24311,-0.182139 2.48373,-0.35035 3.73097,-0.503691 0.47955,-0.05896 0.76636,-0.34147 0.78042,-0.667923 0.014,-0.326154 -0.18131,-0.581352 -0.72859,-0.514218 -0.14439,0.01771 -0.28876,0.0356 -0.43312,0.05367 -0.96425,-4.508329 -1.99648,-10.661414 -3.29162,-18.476145 -0.0139,-0.08386 -0.12565,-0.758307 -0.13955,-0.842165 -0.007,-0.320365 -0.13681,-0.580962 -0.33848,-0.740942 -0.17694,-0.140391 -0.4092,-0.203097 -0.66386,-0.161703 -2.13006,0.34624 -4.24297,0.726463 -6.3607,1.142363 z M 28.268089,80.456907 c 0.414773,-0.0105 0.75151,0.384819 0.751632,0.882695 2.57e-4,5.186313 0.0016,10.878825 -0.002,17.099692 -1.63e-4,0.605107 -0.337256,1.103114 -0.752076,1.112255 -0.414902,0.0093 -0.749237,-0.466655 -0.748265,-1.048265 0.0082,-6.052394 0.007,-11.744271 0.0016,-17.09467 -4.34e-4,-0.521301 0.334265,-0.941324 0.74913,-0.951711 0,0 0,4e-6 0,4e-6 z M 46.34942,79.272021 c 0.418575,-0.04739 0.745392,0.245782 0.732756,0.673053 -0.120267,4.035448 -0.124546,10.539733 -0.0019,17.090658 0.01275,0.670617 -0.314234,1.268233 -0.73289,1.317521 -0.418913,0.04947 -0.769691,-0.468691 -0.781393,-1.13945 -0.115856,-6.533457 -0.111643,-13.065659 0.0016,-17.094961 0.01215,-0.428892 0.363018,-0.799497 0.781854,-0.846824 0,0 0,3e-6 0,3e-6 z m 11.942792,-1.743962 c 0.414857,-0.0729 0.737046,0.208676 0.722272,0.647511 -0.134404,3.966215 -0.1438,9.679389 -0.03637,15.571108 0.01154,0.638144 -0.31329,1.227123 -0.72798,1.299994 -0.414928,0.07306 -0.762845,-0.399517 -0.774698,-1.042306 -0.108255,-5.919414 -0.09872,-11.629827 0.03581,-15.569457 0.01496,-0.435159 0.365863,-0.834009 0.780969,-0.906854 0,0 0,4e-6 0,4e-6 z m 15.651836,-3.294622 c 0.41009,-0.09863 0.73264,0.201982 0.72204,0.685542 -0.102303,4.625364 -0.102988,11.137025 -0.01595,16.987297 0.0091,0.599211 -0.31486,1.174389 -0.724905,1.275252 -0.410082,0.100587 -0.751958,-0.313918 -0.761474,-0.922021 -0.09459,-5.92694 -0.09373,-12.40657 0.01512,-16.992742 0.01139,-0.475933 0.355037,-0.934473 0.76517,-1.033332 0,0 0,4e-6 0,4e-6 z m 29.528982,-7.68487 c 0.40921,-0.103699 0.74707,0.301477 0.75357,0.903126 0.0675,6.341466 0.0718,11.920534 -0.0215,16.950576 -0.009,0.472224 -0.34897,0.930974 -0.75847,1.034368 -0.4097,0.103551 -0.73489,-0.190293 -0.72668,-0.671635 0.0854,-5.128768 0.0809,-10.630108 0.0218,-16.948126 -0.005,-0.593394 0.32179,-1.164697 0.73121,-1.268313 0,0 0,4e-6 0,4e-6 z m 23.15996,-4.932362 c 0.35896,-0.0811 0.68693,0.263722 0.78215,0.815619 0.3257,1.893539 0.63836,3.703231 0.94224,5.433478 0.15541,0.884824 0.30789,1.745027 0.45779,2.580191 0.61091,3.403958 1.16549,6.317711 1.68414,8.722606 0.0846,0.389992 -0.18256,0.804052 -0.59316,0.949464 -0.41043,0.146261 -0.80926,-0.02759 -0.89097,-0.406004 -0.0886,-0.407921 -0.17883,-0.833131 -0.27057,-1.275413 -0.12957,-0.624519 -0.26192,-1.281492 -0.39734,-1.970778 -0.72512,-3.691175 -1.50552,-8.133117 -2.38861,-13.240738 -0.10794,-0.628287 0.12749,-1.329232 0.52867,-1.551678 0.0476,-0.0266 0.0964,-0.04563 0.14566,-0.05679 0,0 0,4.1e-5 0,4.1e-5 z M 33.177341,80.478678 c 0.639366,-0.03025 1.339703,0.628191 1.334948,1.2377 -0.0084,1.077127 -0.0141,2.215671 -0.0178,3.386512 -0.0019,0.60879 -0.729346,1.253852 -1.363304,1.317839 -0.634279,0.06402 -1.131567,-0.204666 -1.130512,-0.91072 4.79e-4,-0.321053 0.499729,-0.758806 0.500209,-1.079859 -7.4e-5,0.03098 0.0064,-2.05909 0.0063,-2.028113 0.0012,-0.302557 -0.497167,-0.611899 -0.495988,-0.914456 0.0025,-0.629075 0.549906,-0.979743 1.166159,-1.008903 z M 107.55599,66.025347 c 0.62636,-0.15004 1.31425,0.737474 1.32438,1.539197 0.0353,2.793238 0.0534,5.456299 0.0512,7.974182 -6e-4,0.665735 -0.70121,1.825918 -1.331,1.955327 -0.62944,0.129336 -1.16663,-0.01951 -1.16494,-0.759626 8.1e-4,-0.356233 0.51826,-0.759706 0.51806,-1.426383 -6.7e-4,-2.187512 -0.015,-4.464899 -0.0407,-6.834121 -0.005,-0.493626 -0.52295,-0.539973 -0.5283,-1.033599 -0.009,-0.793248 0.5671,-1.270282 1.1713,-1.415014 0,0 0,3.7e-5 0,3.7e-5 z m -18.657323,5.258444 c 0.408753,-0.106033 0.738688,0.245006 0.736905,0.789607 -0.01142,3.309182 -0.01704,11.998941 -0.01828,15.261977 -3.01e-4,0.536795 -0.332089,1.058265 -0.740685,1.164817 -0.40841,0.106622 -0.740573,-0.244092 -0.741324,-0.789302 -0.005,-4.131048 -0.0025,-11.193013 0.01782,-15.264738 0.0028,-0.536351 0.336997,-1.056527 0.745569,-1.162394 0,0 0,3.3e-5 0,3.3e-5 z m 48.345083,-7.868124 c 0.41865,-0.03187 0.7575,0.475869 0.75549,1.1176 -0.004,1.26575 0.2729,2.10908 0.7596,2.911595 0.48529,0.800172 1.19647,1.503213 1.95261,2.207837 0.7621,0.710188 1.55666,1.414612 2.20685,2.343748 0.64467,0.921252 1.12141,2.102748 1.1031,3.466127 -0.006,0.480826 -0.35031,0.878221 -0.76854,0.909092 -0.4184,0.03068 -0.75088,-0.315463 -0.74401,-0.791174 0.013,-0.908464 -0.26098,-1.572458 -0.74741,-2.241014 -0.48892,-0.671956 -1.19758,-1.290728 -1.95811,-1.967636 -0.75515,-0.672121 -1.566,-1.404722 -2.20722,-2.43079 -0.64485,-1.03184 -1.11565,-2.433382 -1.11109,-4.290085 8.8e-4,-0.64375 0.33991,-1.203838 0.75873,-1.2353 z m 11.89563,-1.03469 c 0.41695,-0.01516 0.74756,0.477617 0.7396,1.089475 -0.0161,1.21323 0.2545,2.037402 0.73372,2.822819 0.47913,0.785278 1.18337,1.473511 1.93411,2.167306 0.75059,0.693674 1.54773,1.395898 2.19071,2.334876 0.64323,0.939371 1.12151,2.18377 1.11679,3.719221 -0.001,0.544995 -0.33756,1.000008 -0.75141,1.027985 -0.41391,0.02811 -0.74867,-0.375371 -0.7473,-0.902484 0.002,-1.005595 -0.27317,-1.721534 -0.76061,-2.42356 -0.48838,-0.703398 -1.19526,-1.33768 -1.95117,-2.021913 -0.75274,-0.681357 -1.55817,-1.415365 -2.19442,-2.4394 -0.63828,-1.027319 -1.10127,-2.414815 -1.08044,-4.210455 0.007,-0.624413 0.35165,-1.149056 0.77042,-1.16387 z m -25.37165,7.405072 c 0.1585,-0.02493 0.29558,0.08374 0.31987,0.33735 0.45652,2.649811 0.88223,5.049301 1.28279,7.170241 -1.1493,0.173614 -2.2952,0.354441 -3.44227,0.543151 0.52156,-2.27354 1.0145,-4.822752 1.48003,-7.60686 0.0439,-0.232001 0.20105,-0.418951 0.35958,-0.443882 z M 33.152289,88.283261 c 0.633999,-0.06665 1.336372,0.692125 1.336742,1.42464 0.0012,2.320325 0.0078,4.948801 0.02247,7.584631 0.0043,0.764741 -0.720346,1.683757 -1.35972,1.714324 -0.638999,0.03055 -1.140371,-0.332243 -1.142549,-1.180483 -9.97e-4,-0.388407 0.497409,-0.894058 0.496411,-1.282465 -0.0054,-1.996302 -0.0084,-3.96763 -0.0095,-5.800067 -2.07e-4,-0.351555 -0.497908,-0.877767 -0.498115,-1.229322 -6.1e-5,-0.725176 0.542899,-1.16699 1.154256,-1.231258 z" />
    <path
       style="color:#000000;fill:#000000;stroke-linecap:round;-inkscape-stroke:none"
       d="m 156.72266,53.697266 c -28.13326,0 -47.6704,5.541624 -66.728519,11.044921 -19.058118,5.503298 -37.632074,10.964844 -64.148438,10.964844 a 1,1 0 0 0 -1,1 1,1 0 0 0 1,1 c 26.791615,0 45.653001,-5.541416 64.705078,-11.042969 C 109.60286,61.16251 128.8514,55.697266 156.72266,55.697266 a 1,1 0 0 0 1,-1 1,1 0 0 0 -1,-1 z"
       id="path43589" />
    <path
       style="color:#000000;fill:#000000;stroke-linecap:round;-inkscape-stroke:none"
       d="m 156.72266,80.825123 c -28.13326,0 -47.6704,5.541624 -66.728519,11.044921 -19.058118,5.503298 -37.632074,10.964846 -64.148438,10.964846 a 1,1 0 0 0 -1,1 1,1 0 0 0 1,1 c 26.791615,0 45.653001,-5.541418 64.705078,-11.042971 C 109.60286,88.290367 128.8514,82.825123 156.72266,82.825123 a 1,1 0 0 0 1,-1 1,1 0 0 0 -1,-1 z"
       id="use44241" />
    <text
       xml:space="preserve"
       transform="matrix(0.26458333,0,0,0.26458333,22.947351,51.759007)"
       id="text55207"
       style="font-size:85.3333px;line-height:1.25;font-family:'CMU Serif';-inkscape-font-specification:'CMU Serif';letter-spacing:0px;word-spacing:0px;white-space:pre;shape-inside:url(#rect55209)" />
  </g>
</svg>
